<?xml version="1.0" encoding="utf-8"?>
<!-- Generator: Adobe Illustrator 19.2.1, SVG Export Plug-In . SVG Version: 6.00 Build 0)  -->
<svg version="1.1" id="Layer_1" xmlns="http://www.w3.org/2000/svg" xmlns:xlink="http://www.w3.org/1999/xlink" x="0px" y="0px"
	 viewBox="0 0 839.8 635.8" style="enable-background:new 0 0 839.8 635.8;" xml:space="preserve">
<style type="text/css">
	.st0{fill:#0F763B;}
	.st1{fill:#177B3D;}
	.st2{fill:#158040;}
</style>
<g>
	<g id="Layer7_0_FILL">
		<path class="st0" d="M-4.1-23.6L-5.9,90.1l143.3-65.8L-4.1-23.6 M294.9-24.3L137.4,24.3l584.8,45.5l-125-73L294.9-24.3
			 M-7.9,204.1l-1.9,71.5h268L-7.9,204.1 M352.6,601.5l-181.1-59.7L-9.8,482.1v153.7h235.9L352.6,601.5 M620,365.3l227.1-145.4
			l-588.8,55.8L620,365.3 M171.3,373.9l-64.5,73l64.6,94.8L171.3,373.9z"/>
		<path class="st1" d="M-5.9,90.1l-2,114L137.4,24.3L-5.9,90.1 M137.4,24.3l120.9,251.4l464-205.9L137.4,24.3 M137.4,24.3l39.2-48.6
			H-3.1l-0.9,0.7L137.4,24.3 M352.6,601.5h0.5c0.3-0.1,0.5-0.2,0.8-0.3l323.6-87.6l-506.1,28.2L352.6,601.5 M847.1,219.9
			L677.5,513.6l-87.2,122.2h256.7V219.9 M853.3-59.1l-72.8,34.8l-58.4,94l124.9,150.1L853.3-59.1 M106.8,447l64.5-73l0.1,167.9
			L620,365.3l-361.7-89.6h-268v206.4l181.3,59.7L106.8,447z"/>
		<path class="st2" d="M258.2,275.7L137.4,24.3L-7.9,204.1L258.2,275.7 M176.5-24.3l-39.2,48.6l157.5-48.6H176.5 M353.1,601.5h-0.5
			l-126.5,34.3h364.3l87.2-122.2l-323.6,87.6C353.7,601.3,353.4,601.4,353.1,601.5 M847.1,219.9L722.2,69.7l-464,205.9L847.1,219.9
			 M847.1,219.9L620,365.3L171.5,541.8l506.1-28.2L847.1,219.9 M722.2,69.7l58.4-94l-183.4,21L722.2,69.7z"/>
	</g>
</g>
</svg>
