<?xml version="1.0" encoding="utf-8"?>
<!-- Generator: Adobe Illustrator 19.2.1, SVG Export Plug-In . SVG Version: 6.00 Build 0)  -->
<svg version="1.1" id="Capa_1" xmlns="http://www.w3.org/2000/svg" xmlns:xlink="http://www.w3.org/1999/xlink" x="0px" y="0px"
	 viewBox="0 0 32.8 32.8" style="enable-background:new 0 0 32.8 32.8;" xml:space="preserve">
<style type="text/css">
	.st0{fill:#6E0D10;}
	.st1{fill:#FFFFFF;}
</style>
<g>
	<g>
		<path class="st0" d="M15.2,25.7h3.4V11.5h-2.4c0,0.2-0.1,0.5-0.2,0.7c-0.1,0.3-0.3,0.5-0.5,0.7s-0.6,0.4-1,0.6
			c-0.4,0.1-0.9,0.2-1.6,0.2h-0.4v2.1h2.7V25.7z"/>
		<polygon class="st0" points="12.5,3.5 12.5,3.5 12.2,5.3 12.8,5.3 		"/>
		<path class="st0" d="M15.3,6.1c0,0,0.1,0.1,0.2,0.1c0.1,0,0.1,0,0.2-0.1c0,0,0.1-0.1,0.1-0.2c0-0.1,0-0.2,0-0.3c0-0.1,0-0.2,0-0.4
			c0-0.1,0-0.2,0-0.3s0-0.2,0-0.3c0-0.1-0.1-0.2-0.1-0.2c0-0.1-0.1-0.1-0.2-0.1c-0.1,0-0.2,0.1-0.3,0.2c0,0.2-0.1,0.4-0.1,0.7
			c0,0.1,0,0.3,0,0.4c0,0.1,0,0.2,0,0.3C15.3,6,15.3,6.1,15.3,6.1z"/>
	</g>
</g>
<path class="st0" d="M29.4,1.3h-1.1c0-0.1,0.1-0.2,0.1-0.3c0-0.5-0.4-1-1-1s-1,0.4-1,1c0,0.1,0,0.2,0.1,0.3h-3.7
	c0-0.1,0.1-0.2,0.1-0.3c0-0.5-0.4-1-1-1c-0.5,0-1,0.4-1,1c0,0.1,0,0.2,0.1,0.3h-3.7c0-0.1,0.1-0.2,0.1-0.3c0-0.5-0.4-1-1-1
	s-1,0.4-1,1c0,0.1,0,0.2,0.1,0.3h-3.7c0-0.1,0.1-0.2,0.1-0.3c0-0.5-0.4-1-1-1c-0.5,0-1,0.4-1,1c0,0.1,0,0.2,0.1,0.3H6.3
	c0-0.1,0.1-0.2,0.1-0.3c0-0.5-0.4-1-1-1s-1,0.4-1,1c0,0.1,0,0.2,0.1,0.3H3.4C1.9,1.3,0.6,2.5,0.6,4v26c0,1.5,1.2,2.8,2.8,2.8h22.9
	l5.9-5.9V4C32.1,2.5,30.9,1.3,29.4,1.3z M30.6,26.3l-0.3,0.3H28c-1.1,0-2,0.9-2,2v2.4l-0.3,0.3H3.4c-0.7,0-1.3-0.6-1.3-1.3V9h28.5
	V26.3z"/>
<g>
	<path class="st1" d="M6.7,5.8c0.2,0.1,0.4,0.2,0.7,0.2c0.3,0,0.4-0.1,0.4-0.3c0-0.2-0.1-0.3-0.5-0.4C6.9,5.1,6.6,4.8,6.6,4.5
		c0-0.5,0.4-0.8,1-0.8c0.3,0,0.5,0.1,0.7,0.1L8.2,4.3C8.1,4.2,7.9,4.1,7.6,4.1c-0.3,0-0.4,0.1-0.4,0.3c0,0.2,0.1,0.2,0.5,0.4
		C8.2,5,8.4,5.2,8.4,5.6c0,0.5-0.3,0.8-1.1,0.8c-0.3,0-0.6-0.1-0.8-0.2L6.7,5.8z"/>
	<path class="st1" d="M9.3,5.6C9.4,5.8,9.6,6,9.9,6c0.2,0,0.4,0,0.5-0.1l0.1,0.4c-0.2,0.1-0.4,0.1-0.7,0.1c-0.7,0-1-0.4-1-1
		c0-0.5,0.3-1,1-1c0.6,0,0.9,0.5,0.9,1c0,0.1,0,0.2,0,0.2H9.3z M10.1,5.2c0-0.1-0.1-0.4-0.3-0.4C9.5,4.8,9.3,5,9.3,5.2H10.1z"/>
	<path class="st1" d="M11,5.1c0-0.3,0-0.5,0-0.7h0.5l0,0.3h0c0.1-0.2,0.4-0.3,0.7-0.3c0.4,0,0.8,0.4,0.8,1c0,0.7-0.5,1-0.9,1
		c-0.2,0-0.4-0.1-0.5-0.2h0v1H11V5.1z M11.6,5.5c0,0,0,0.1,0,0.1C11.6,5.8,11.8,6,12,6c0.3,0,0.4-0.2,0.4-0.6c0-0.3-0.1-0.5-0.4-0.5
		c-0.2,0-0.3,0.1-0.4,0.3c0,0,0,0.1,0,0.1V5.5z"/>
	<path class="st1" d="M14.1,3.9v0.5h0.4v0.4h-0.4v0.7c0,0.2,0.1,0.3,0.2,0.3c0.1,0,0.1,0,0.2,0l0,0.5c-0.1,0-0.2,0.1-0.4,0.1
		c-0.2,0-0.4-0.1-0.5-0.2c-0.1-0.1-0.2-0.3-0.2-0.6V4.9h-0.3V4.4h0.3V4.1L14.1,3.9z"/>
	<path class="st1" d="M15.3,5.6c0,0.3,0.3,0.4,0.6,0.4c0.2,0,0.4,0,0.5-0.1l0.1,0.4c-0.2,0.1-0.4,0.1-0.7,0.1c-0.7,0-1-0.4-1-1
		c0-0.5,0.3-1,1-1c0.6,0,0.9,0.5,0.9,1c0,0.1,0,0.2,0,0.2H15.3z M16,5.2c0-0.1-0.1-0.4-0.3-0.4c-0.3,0-0.4,0.2-0.4,0.4H16z"/>
	<path class="st1" d="M16.9,5.1c0-0.2,0-0.4,0-0.6h0.5l0,0.3h0c0.1-0.1,0.3-0.3,0.6-0.3c0.3,0,0.5,0.1,0.5,0.3h0
		c0.1-0.1,0.2-0.2,0.3-0.2c0.1-0.1,0.2-0.1,0.4-0.1c0.4,0,0.7,0.3,0.7,0.8v1.2h-0.6V5.3c0-0.3-0.1-0.4-0.3-0.4
		c-0.1,0-0.2,0.1-0.3,0.2c0,0,0,0.1,0,0.2v1.1h-0.6V5.3c0-0.2-0.1-0.4-0.3-0.4c-0.2,0-0.2,0.1-0.3,0.2c0,0,0,0.1,0,0.2v1.1h-0.6V5.1
		z"/>
	<path class="st1" d="M20.4,3.5H21v1.1h0c0.1-0.2,0.3-0.3,0.6-0.3c0.5,0,0.8,0.4,0.8,1c0,0.7-0.4,1.1-0.9,1.1
		c-0.2,0-0.5-0.1-0.6-0.3h0l0,0.3h-0.5c0-0.1,0-0.4,0-0.6V3.5z M21,5.6c0,0,0,0.1,0,0.1c0,0.2,0.2,0.3,0.4,0.3
		c0.3,0,0.4-0.2,0.4-0.6c0-0.3-0.1-0.5-0.4-0.5C21.2,4.9,21,5,21,5.2c0,0,0,0.1,0,0.1V5.6z"/>
	<path class="st1" d="M22.8,5.1c0-0.3,0-0.5,0-0.6h0.5l0,0.4h0c0.1-0.3,0.3-0.4,0.5-0.4c0.1,0,0.1,0,0.1,0V5c0,0-0.1,0-0.2,0
		c-0.2,0-0.4,0.1-0.4,0.3c0,0,0,0.1,0,0.1v1h-0.6V5.1z"/>
	<path class="st1" d="M24.6,4.2c-0.2,0-0.3-0.1-0.3-0.3c0-0.2,0.1-0.3,0.3-0.3s0.3,0.1,0.3,0.3C24.9,4.1,24.8,4.2,24.6,4.2L24.6,4.2
		z M24.3,6.4v-2h0.6v2H24.3z"/>
	<path class="st1" d="M25.4,5.8C25.5,5.9,25.7,6,25.9,6c0.2,0,0.3-0.1,0.3-0.2c0-0.1-0.1-0.2-0.3-0.2c-0.4-0.1-0.6-0.4-0.6-0.6
		c0-0.4,0.3-0.6,0.8-0.6c0.2,0,0.4,0.1,0.5,0.1l-0.1,0.4c-0.1,0-0.3-0.1-0.4-0.1c-0.1,0-0.2,0.1-0.2,0.2c0,0.1,0.1,0.1,0.3,0.2
		c0.4,0.1,0.5,0.3,0.5,0.6c0,0.4-0.3,0.6-0.8,0.6c-0.3,0-0.5-0.1-0.6-0.1L25.4,5.8z"/>
</g>
</svg>
