<?xml version="1.0" encoding="utf-8"?>
<!-- Generator: Adobe Illustrator 19.2.1, SVG Export Plug-In . SVG Version: 6.00 Build 0)  -->
<svg version="1.1" id="Layer_1" xmlns="http://www.w3.org/2000/svg" xmlns:xlink="http://www.w3.org/1999/xlink" x="0px" y="0px"
	 viewBox="0 0 841.9 249.5" style="enable-background:new 0 0 841.9 249.5;" xml:space="preserve">
<style type="text/css">
	.st0{fill:url(#SVGID_1_);}
	.st1{fill:#A5D4F1;}
	.st2{fill:url(#SVGID_2_);}
	.st3{fill:url(#SVGID_3_);}
	.st4{fill:#0F763B;}
	.st5{fill:#177B3D;}
	.st6{fill:#158040;}
	.st7{fill-opacity:0.2863;}
	.st8{fill:#961B1E;}
	.st9{fill:#A62622;}
	.st10{fill:#861618;}
	.st11{fill:#FFFFFF;}
	.st12{fill:#E4DFD6;}
	.st13{fill:#DDD9D1;}
	.st14{fill:#CDC9C3;}
	.st15{fill:#E8E8E6;}
	.st16{fill:#D0D2D1;}
	.st17{fill:#D3D0C8;}
	.st18{fill:#DAD7CF;}
	.st19{fill:#EDEDEC;}
	.st20{fill:#D7D3CB;}
	.st21{fill:#EAE4DC;}
	.st22{fill:#D8D4CD;}
	.st23{fill:#6E0D10;}
	.st24{fill:#BEBAB5;}
	.st25{fill:#891B1A;}
	.st26{fill:#005129;}
	.st27{fill:none;stroke:#000000;stroke-linecap:square;stroke-miterlimit:3;}
	.st28{fill:#073018;}
</style>
<g>
	
		<linearGradient id="SVGID_1_" gradientUnits="userSpaceOnUse" x1="420.945" y1="608.914" x2="420.945" y2="160.5919" gradientTransform="matrix(1 0 0 -1 0 598)">
		<stop  offset="0" style="stop-color:#FFFFFF"/>
		<stop  offset="1" style="stop-color:#79C2D0"/>
	</linearGradient>
	<path class="st0" d="M0-12.2v122l459.5,36.7L0-12.2 M91.4,325.7l132.5-95.6L0,220.8v86.3L91.4,325.7 M694,249.5l147.9-114.9
		L415.7,238L694,249.5z"/>
	<path class="st1" d="M415.7,238l-191.8-7.9L91.4,325.7L694,249.5L415.7,238 M841.9,134.6L694,249.5l147.9-18.7V134.6z"/>
	
		<linearGradient id="SVGID_2_" gradientUnits="userSpaceOnUse" x1="420.945" y1="608.914" x2="420.945" y2="160.5919" gradientTransform="matrix(1 0 0 -1 0 598)">
		<stop  offset="0" style="stop-color:#FFFFFF"/>
		<stop  offset="1" style="stop-color:#005BAA"/>
	</linearGradient>
	<path class="st2" d="M650.8,61.1l191.1-85.3H0L650.8,61.1z"/>
	
		<linearGradient id="SVGID_3_" gradientUnits="userSpaceOnUse" x1="420.945" y1="608.914" x2="420.945" y2="160.5919" gradientTransform="matrix(1 0 0 -1 0 598)">
		<stop  offset="0" style="stop-color:#FFFFFF"/>
		<stop  offset="1" style="stop-color:#42A0C5"/>
	</linearGradient>
	<path class="st3" d="M841.9,134.6V-24.2L650.8,61.1L0-24.2v11.9l459.5,158.7L0,109.7v111.1l223.9,9.2l191.8,7.9L841.9,134.6
		 M841.9,230.8L694,249.5L91.4,325.7L0,307.1v143.5h223.5V441h398.6v9.6h219.8V230.8z"/>
</g>
<g>
	<g id="Layer7_0_FILL">
		<path class="st4" d="M-1,159.8l-1.8,54.4l142-31.4L-1,159.8 M295.2,159.4l-156.1,23.2l579.5,21.7l-123.9-34.9L295.2,159.4
			 M-4.8,268.6l-1.8,34.2h265.6L-4.8,268.6 M352.4,458.6L172.9,430L-6.7,401.5V475h233.8L352.4,458.6 M617.3,345.6l225-69.5
			l-583.5,26.7L617.3,345.6 M172.8,349.8l-63.9,34.9l64.1,45.3L172.8,349.8z"/>
		<path class="st5" d="M-2.9,214.1l-2,54.5l144-86L-2.9,214.1 M139.1,182.7l119.8,120.2l459.7-98.4L139.1,182.7 M139.1,182.7
			l38.8-23.2h-178l-0.9,0.3L139.1,182.7 M352.4,458.6h0.5c0.3-0.1,0.5-0.1,0.8-0.2l320.7-41.9L172.9,430L352.4,458.6 M842.4,276.1
			l-168,140.4L588,475h254.4V276.1 M848.6,142.8l-72.1,16.6l-57.8,44.9l123.7,71.8L848.6,142.8 M108.9,384.7l63.9-34.9l0.1,80.2
			l444.4-84.4l-358.4-42.8H-6.7v98.7L172.9,430L108.9,384.7z"/>
		<path class="st6" d="M258.9,302.8L139.1,182.7l-144,86L258.9,302.8 M177.9,159.4l-38.8,23.2l156.1-23.2H177.9 M352.9,458.6h-0.5
			L227.1,475H588l86.4-58.4l-320.7,41.9C353.5,458.5,353.2,458.5,352.9,458.6 M842.4,276.1l-123.7-71.8l-459.7,98.4L842.4,276.1
			 M842.4,276.1l-225,69.5L172.9,430l501.5-13.5L842.4,276.1 M718.6,204.4l57.8-44.9l-181.7,10L718.6,204.4z"/>
	</g>
</g>
<g transform="matrix( 1, 0, 0, 1, 0,0) ">
	<g>
		<g id="Layer4_0_FILL">
			<path class="st7" d="M179.1,212.8l-18.6,2.4h-0.2l-12.3-8.6l-6.9,18.3l7.1,18l7.2,30.9l-3,9l2.7,0.2l-2.7-0.1l-45.9,1l-82.6,23.2
				L3.6,335.6l-4.1,28.6l39.9,41.1l72.3,20.5l100.1,15.8l96.1-23.3l43.3-42.4l2.1-47.1l-47.9-24l-55.6-16.1l-16.1-1l9.4-28.5
				l-3-15.1l-17.2-38.8l-15.2,7.4L179.1,212.8 M46.8,327.5L46.8,327.5l0.2-0.1L46.8,327.5 M46.3,327.7h-0.2l-0.2-0.1l0.4-0.1
				l0.1,0.1L46.3,327.7l0.2-0.1l0.1,0.1C46.5,327.6,46.4,327.7,46.3,327.7 M184.5,313.1l-0.3,0.1l0.1-0.8L184.5,313.1 M223.6,307
				l0.5-0.4v0.4H223.6 M241.2,380.3c0,0.1,0.2,0.5,0.5,1.3l-0.3,0.1C240.7,379.5,240.6,379,241.2,380.3z"/>
		</g>
	</g>
</g>
<g transform="matrix( 1, 0, 0, 1, 0,0) ">
	<g>
		<g id="Layer3_0_FILL">
			<path class="st8" d="M163.9,24.7l-20,3.8l5.8,20.1L163.9,24.7 M124,32.3l4.8,21.7l20.6-4.7l-15.7,33.8l22.1-9.2l-6.3-24.9
				L124,32.3 M224.6,77.8l-7.7-23.5L195.7,47L224.6,77.8 M149.6,49L149.6,49c0.5,1.2,0.7,1.5,0.5,0.8c0,0-0.1-0.2-0.2-0.6h-0.1
				L149.6,49 M149.8,48.8l-0.1-0.3v0.1l-0.2,0.3V49l0.3,0.2L149.8,48.8z"/>
			<path class="st9" d="M149.5,48.9l0.2-0.4l-5.8-20.1l-20,3.8L149.5,48.9 M108.7,62.2l20-8.2L124,32.3L108.7,62.2 M188.5,28.9
				l-24.6-4.2l31.6,22.2L188.5,28.9 M149.8,48.5l0.1,0.3l20.9-4.5l-6.9-19.7L149.8,48.5 M149.9,49.2L149.9,49.2l-0.3-0.2L149.9,49.2
				 M204.1,31.5L195.7,47l21.2,7.3L204.1,31.5 M236.7,40.6l-32.6-9.1l30,22.7L236.7,40.6 M249.8,66.1l14.8-5.3l-30.6-6.6L249.8,66.1
				 M252.4,82.8l-0.7-0.4l0.2,0.1h0.4l0.7,0.6c0.1,0.1,0.2,0.2,0.3,0.2l0.1,0.1v-0.1l0.7-0.9l-1,0.6l-0.7-0.8l-2.7-16.1l-25.2,11.7
				l26.6,4.6L252.4,82.8l-0.1,0.1l0.1,0.1l-0.1,0.1h-0.1v0.1l0.2-0.1h0.1l0.1-0.1L252.4,82.8L252.4,82.8z"/>
			<path class="st10" d="M98.1,50.8l10.7,11.4L124,32.3L98.1,50.8 M195.7,47l8.4-15.4l-15.5-2.7l6.9,18l-31.6-22.2l6.9,19.7
				L195.7,47L195.7,47 M170.8,44.3l-20.9,4.5l0.1,0.3v0.1h0.1L181,73.8L170.8,44.3 M149.6,49L149.6,49L149.6,49L149.6,49
				 M108.7,62.2l25,20.9l-5-29.1L108.7,62.2z"/>
			<path class="st11" d="M139.9,143.8l0.3,20l15.5-1.6L139.9,143.8z"/>
			<path class="st12" d="M191.9,156.1l-9.7,12l9.7,19.9V156.1 M191.9,216.6l15.3-11.2l-15.3-17.4V216.6 M204.1,177.8l-12.2,10.3
				l30.6,6.2L204.1,177.8 M183.4,199l-17.8,18.1l26.4-0.4L183.4,199 M165.5,181.6l17.8,17.4l8.6-10.9L165.5,181.6 M165.5,217.1
				v-35.5l-7.8,12.3L165.5,217.1 M154.4,140.4l13.7,12.1v-19.4L154.4,140.4 M155.6,162.1l12.4-9.6l-28.2-8.7L155.6,162.1
				 M179.9,141.6l-11.8,10.9l23.9,3.6L179.9,141.6 M182.2,168.1l-14.1-15.7l-2.5,29.1L182.2,168.1z"/>
			<path class="st11" d="M165.5,181.6l26.4,6.5l-9.7-19.9L165.5,181.6 M191.9,216.6v-28.6l-8.6,10.9L191.9,216.6 M191.9,188.1
				l15.3,17.4l15.4-11.2L191.9,188.1 M191.9,188.1l12.2-10.3l-12.2-21.7V188.1 M157.7,193.8l7.8-12.3l-25.4-17.8L157.7,193.8
				 M165.5,181.6v35.5l17.8-18.1L165.5,181.6 M168.1,152.5l-13.7-12.1l-14.6,3.4L168.1,152.5 M168.1,152.5l-12.4,9.6l9.9,19.5
				L168.1,152.5 M168.1,152.5l11.8-10.9l-11.8-8.4V152.5 M168.1,152.5l14.1,15.7l9.7-12L168.1,152.5 M204.1,177.8l18.4,16.4
				L211.9,166L204.1,177.8 M187.5,133.1l-7.6,8.4l12.1,14.6L187.5,133.1 M197.6,146.7l-5.6,9.5l20,9.9L197.6,146.7 M207.2,205.4
				l-15.3,11.2l16.5-4.6h0.1l0.1-0.1v0.1l14.3-3.9L207.2,205.4z"/>
			<path class="st13" d="M165.5,181.6l-9.9-19.5l-15.5,1.6L165.5,181.6z"/>
			<path class="st14" d="M149,208.6l8.7-14.7l-17.5-30.1L149,208.6z"/>
			<path class="st15" d="M165.5,217.1l-7.8-23.2l-8.7,14.7L165.5,217.1z"/>
			<path class="st16" d="M154.4,140.4l-10-11.9l-4.6,15.3L154.4,140.4z"/>
			<path class="st11" d="M144.4,128.5l10,11.9l13.7-7.2L144.4,128.5 M195.7,122.3l-4.1-4.7l-4.1,15.5L195.7,122.3 M201.3,118.7
				l-5.6,3.6l5,5.6L201.3,118.7z"/>
			<path class="st11" d="M144.4,128.5l16.6-7.8l-12.1-7.5L144.4,128.5 M176.3,115.9l-1.1-0.1l6.7,7.2l9.6-5.4L176.3,115.9z"/>
			<path class="st17" d="M161,120.7l-16.6,7.8l23.7,4.7L161,120.7 M175.2,115.8l-7.2,17.4l13.8-10.1L175.2,115.8 M200.7,127.9
				l-5-5.6l-8.2,10.9L200.7,127.9z"/>
			<path class="st18" d="M187.5,133.1h-19.4l11.8,8.4L187.5,133.1 M181.9,123l5.6,10.1l4.1-15.5L181.9,123z"/>
			<path class="st11" d="M187.5,133.1l-5.6-10.1l-13.8,10.1H187.5 M175.2,115.8l-3.2-0.4l-11,5.3l7,12.4L175.2,115.8z"/>
			<path class="st19" d="M197.6,146.7l3.1-18.8l-13.2,5.3L197.6,146.7z"/>
			<path class="st20" d="M197.6,146.7l14.3,19.4l-11.2-38.2L197.6,146.7z"/>
			<path class="st21" d="M211.9,166l-20-9.9l12.2,21.7L211.9,166 M207.2,205.4l15.6,2.7l-0.2-13.9L207.2,205.4z"/>
			<path class="st22" d="M191.9,156.1l5.6-9.5l-10.1-13.5L191.9,156.1z"/>
			<path class="st23" d="M191.6,117.6l7.3,0.8l2.4,0.2l2.4-24.5l-27.4,21.7L191.6,117.6L191.6,117.6 M205.7,73.4l-10-26.5L181,73.8
				L205.7,73.4 M236.7,40.6l-2.6,13.6l30.6,6.6L236.7,40.6 M234.1,54.2l-9.4,23.5l25.2-11.7L234.1,54.2 M216.9,54.2h17.1l-30-22.7
				L216.9,54.2 M230.5,95.6l-26.8-1.4l26.8,24V95.6 M203.7,94.2l20.9-16.4l-18.9-4.4L203.7,94.2 M179,91.9l-22.9,4.5l20.2,19.5
				L179,91.9 M181,73.8l-2,18l24.7,2.3L181,73.8 M155.8,73.8v22.3l-22.1-13.1l5,29l17.4-15.7L181,73.8H155.8 M149.8,48.5l-0.2,0.4
				L149.8,48.5L149.8,48.5 M108.7,78.6V62.2L85.4,78.6H108.7 M133.7,83.1l-25-4.5l-1.8,18.8L133.7,83.1 M255.2,106.5l-1.6-22.9
				l-23.1,34.6L255.2,106.5 M252.6,82.3l0.7,0.8l1-0.6l10.4-21.7l-14.8,5.3L252.6,82.3 M252.8,83.1v-0.2l-0.2,0.1l-0.1,0.1h-0.1
				l-0.2,0.1V83h0.1l0.1-0.1h0.1l-1.2-0.5l-26.6-4.6l5.8,17.8l22.4-12.3L252.8,83.1l0.5,0.3L252.8,83.1 M253.5,83.4L253.5,83.4
				l0.7-0.9L253.5,83.4 M253.6,83.5L253.6,83.5l18.7,14.9V77.9l-18.1,4.6L253.6,83.5 M251.8,82.5l0.7,0.4c0,0,0.1,0,0.1,0l0.1-0.1
				l0.2,0.1l0.3,0.2l-0.7-0.6H252L251.8,82.5z"/>
			<path class="st24" d="M199,118.4l-7.3-0.8h-0.1l4.1,4.7l5.6-3.6L199,118.4 M149,113.2l12.1,7.5l11-5.3L149,113.2z"/>
			<path class="st25" d="M175.2,115.8l1.1,0.1l-20.2-19.5l-17.4,15.7l10.3,1.2l23.1,2.2L175.2,115.8 M201.3,118.6l29.1-0.5l-26.8-24
				L201.3,118.6 M203.7,94.2L179,91.9l-2.7,24L203.7,94.2 M203.7,94.2l2-20.8L181,73.8L203.7,94.2 M234.1,54.2h-17.1l7.7,23.5
				L234.1,54.2 M205.7,73.4l18.9,4.4L195.7,47L205.7,73.4 M224.6,77.8l-20.9,16.4l26.8,1.4L224.6,77.8 M179,91.9l2-18l-24.9,22.5
				L179,91.9 M155.8,96.2V73.8l-22.1,9.2L155.8,96.2 M149.9,49.2c0.1,0.4,0.1,0.6,0.2,0.6c0.2,0.6,0,0.3-0.6-0.9l6.3,24.9H181
				L149.9,49.2 M149.8,48.6l-0.2,0.3h0.1L149.8,48.6 M195.7,47L195.7,47l-24.9-2.6L181,73.8L195.7,47 M128.8,54l5,29.1l15.7-33.8
				L128.8,54 M108.7,62.2L98.1,50.8L85.4,78.6L108.7,62.2 M106.9,97.3l1.8-18.8H85.4L106.9,97.3 M133.7,83.1l-26.8,14.3l31.8,14.7
				L133.7,83.1 M108.7,78.6l25,4.5l-25-20.9V78.6 M253.6,83.6l1.6,22.9l17.1-8.1L253.6,83.6 M253.6,83.6L253.6,83.6l0.6-1
				L253.6,83.6l-0.2-0.2c-0.1-0.1-0.2-0.2-0.3-0.2l-0.3-0.2v0.2l0.5,0.3l-0.4-0.2v0.2l-22.4,12.3v22.6L253.6,83.6 M272.3,77.9
				l-7.6-17.1l-10.4,21.7L272.3,77.9z"/>
			<path class="st26" d="M315.2,137.9l-2.7-5.9l-5.5-3.9l-8.5-1.6l-8.6,1.5l-6.9,1.9l-5.9,4.3l-1.6,3.6v4.4l8.9,4.2l6.2,0.1l0.1,1.9
				l-2.4,8.2l-2.3,6v3l6.6,1.8l5.6,0.1l3.5-1.8l1.9-9.5l0.1-4.3l-1.9-6.5l2.2-0.2l6.8-3.2L315.2,137.9 M300.1,141.8l-0.8-6.1
				L300.1,141.8L300.1,141.8 M301.3,131.6L301.3,131.6v0.1V131.6 M279.5,138.9L279.5,138.9L279.5,138.9L279.5,138.9z"/>
		</g>
	</g>
</g>
<g>
	<path d="M549.3,128.7c-0.5-0.3-1.1-0.5-2-0.6h-3.3c-0.9,0-1.5,0.2-2,0.6c-0.5,0.3-0.8,0.8-1,1.4c-0.2,0.6-0.3,1.3-0.3,2v1h2.7v-0.4
		c0-0.5,0.1-1,0.2-1.3c0.1-0.4,0.4-0.6,0.9-0.6h2.2c0.5,0,0.8,0.1,1,0.4c0.1,0.3,0.1,0.7,0.1,1.3v0.8c0,0.5-0.1,0.9-0.2,1.2
		c-0.1,0.3-0.2,0.6-0.5,0.9c-0.2,0.3-0.5,0.7-0.8,1l-4.4,5.5c-0.3,0.3-0.5,0.6-0.7,1c-0.2,0.3-0.3,0.6-0.5,1
		c-0.1,0.4-0.1,0.9-0.1,1.4v1.6h9.8v-2.8H544c0-0.1,0-0.2,0.1-0.3s0.1-0.2,0.1-0.3l5.7-7.3c0.3-0.3,0.5-0.7,0.6-1.2
		c0.1-0.4,0.2-0.8,0.2-1.4v-1.8c0-0.7-0.1-1.4-0.3-2C550.2,129.6,549.8,129.1,549.3,128.7 M565.6,128.2l-2.6,2v3.1l2.6-1.9v15.8h2.7
		v-19H565.6 M561.7,130.6c0-0.7-0.2-1.3-0.7-1.8c-0.5-0.4-1-0.7-1.7-0.7h-5c-0.7,0-1.3,0.3-1.8,0.7c-0.4,0.5-0.7,1.1-0.7,1.8v14.1
		c0,0.7,0.3,1.3,0.7,1.8c0.5,0.4,1.1,0.7,1.8,0.7h5c0.7,0,1.2-0.3,1.7-0.7c0.5-0.5,0.7-1.1,0.7-1.8V130.6 M554.7,131.7
		c0-0.2,0.1-0.4,0.2-0.5c0.2-0.2,0.4-0.3,0.6-0.3h2.7c0.3,0,0.5,0.1,0.6,0.3c0.1,0.1,0.2,0.3,0.2,0.5v11.9c0,0.2-0.1,0.4-0.2,0.5
		c-0.1,0.1-0.3,0.2-0.6,0.3h-2.7c-0.2,0-0.4-0.1-0.6-0.3c-0.1-0.1-0.2-0.3-0.2-0.5V131.7 M573.3,147.2l5.8-16.9v-2.1h-9.6v2.8h6.5
		l-5.6,16.2H573.3z"/>
	<path class="st25" d="M450,45.4c-2.9-1.3-6.3-2-10.2-2c-3.3-0.1-6.4,0.2-9.2,1.1c-2.7,0.8-5,2.3-6.9,4.5c-1.8,2.2-2.9,5.2-3.3,9.1
		c-0.3,4,0.2,7.5,1.8,10.5c1.5,3,4.1,5.8,7.6,8.5l10.9,8.6c2.3,1.8,3.9,3.6,5,5.5c1.1,1.9,1.8,4,2,6.4c0.3,3.6-0.2,6.1-1.2,7.6
		c-1.1,1.5-3.4,2.3-6.8,2.3c-3,0-5.1-0.5-6.3-1.5c-1.2-0.9-1.9-2.4-2.1-4.5c-0.2-1.5-0.3-2.9-0.3-4.3c0-1.4,0-2.9,0-4.4h-10.8
		c-0.1,3,0,6.2,0.1,9.5c0.1,3.2,0.9,6.2,2.3,9.1c1.5,2.7,3.7,4.6,6.5,5.7c2.9,1,6.4,1.5,10.5,1.4c4.1,0.3,7.9-0.4,11.3-2
		c3.4-1.6,5.8-4.4,7.3-8.4c0.6-2,0.9-4,1-6c0.2-2,0.2-3.9-0.1-5.9c-0.3-4-1.6-7.6-3.6-10.6c-2-3-4.6-5.8-7.8-8.3l-13.3-10.6
		c-1.6-1.3-2.6-2.9-3-4.7c-0.3-1.8,0-3.5,1-5.1c0.6-1,1.5-1.6,2.7-1.9c1.3-0.3,2.8-0.5,4.6-0.6c2.8,0,4.7,0.6,5.8,1.8
		c1.1,1.2,1.7,2.7,1.8,4.5s0.1,3.8,0.1,5.9h11.8c0-2.9-0.1-5.5-0.4-8c-0.4-2.5-1.1-4.7-2.1-6.6C455.2,48.8,452.9,46.7,450,45.4
		 M476.7,54.3h27.2V43.4h-38.2v75h38.2v-10.8h-27.2V90.6h20.2V79.7h-20.2V54.3 M498.8,26.2H473V37h25.9V26.2 M543.2,43.4h-10.9v54.1
		c0,1.6-0.1,3.2-0.3,4.7c-0.1,1.6-0.4,2.8-1,3.8c-0.6,1-1.6,1.5-3,1.6h-5.2c-1.8-0.1-3-1-3.5-2.8c-0.6-1.7-0.8-3.7-0.8-6v-3.6h-10.8
		v7.2c-0.1,4.6,0.8,8.5,2.7,11.4c2,3,5.3,4.5,10.2,4.6h9.6c4.9-0.1,8.3-1.6,10.3-4.6c1.9-3,2.8-6.8,2.8-11.4V43.4 M560.5,43.4h-11
		v75h11V43.4 M577.8,54.3h27.2V43.4h-38.2v75h38.2v-10.8h-27.2V90.6H598V79.7h-20.2V54.3 M650,43.4h-10.8v47.3l-17.1-47.3h-10.9v75
		h10.9V71.1l17.1,47.3H650V43.4 M693.1,51.8c-1.6-3-3.8-5.1-6.7-6.5c-2.9-1.3-6.3-2-10.2-2c-3.3-0.1-6.3,0.2-9.1,1.1
		c-2.8,0.8-5.1,2.3-7,4.5c-1.8,2.2-2.9,5.2-3.3,9.1c-0.3,4,0.2,7.5,1.8,10.5c1.5,3,4.1,5.8,7.6,8.5l10.9,8.6c2.3,1.8,3.9,3.6,5,5.5
		c1.2,1.9,1.8,4,2,6.4c0.2,3.6-0.2,6.1-1.3,7.6c-1.1,1.5-3.4,2.3-6.8,2.3c-3,0-5.1-0.5-6.3-1.5c-1.2-0.9-1.9-2.4-2-4.5
		c-0.2-1.5-0.3-2.9-0.3-4.3c0-1.4,0-2.9,0-4.4h-10.9c-0.1,3,0,6.2,0.1,9.5c0.1,3.2,0.9,6.2,2.3,9.1c1.6,2.7,3.7,4.6,6.5,5.7
		c2.9,1,6.4,1.5,10.5,1.4c4.1,0.3,7.9-0.4,11.3-2c3.4-1.6,5.8-4.4,7.3-8.4c0.6-2,0.9-4,1-6c0.1-2,0.1-4-0.1-6
		c-0.3-4-1.5-7.5-3.6-10.5c-2.1-3-4.7-5.8-7.8-8.3l-13.3-10.6c-1.6-1.3-2.6-2.9-3-4.7c-0.3-1.8,0-3.5,1-5.1c0.6-1,1.5-1.6,2.7-1.9
		c1.3-0.3,2.8-0.5,4.6-0.6c2.8,0,4.7,0.6,5.8,1.8c1.1,1.2,1.7,2.7,1.8,4.5c0,1.8,0.1,3.8,0.1,5.9h11.7c0.1-2.9,0-5.5-0.4-8
		C694.8,56,694.1,53.8,693.1,51.8z"/>
	<g>
		<path id="Layer2_0_1_STROKES" class="st27" d="M587.7,135.7h110.5 M419.8,136.6h110.5"/>
	</g>
</g>
<g transform="matrix( 1, 0, 0, 1, 0,0) ">
	<g>
		<g id="Layer1_0_FILL">
			<path class="st28" d="M594.7,175.6c-0.4-0.1-0.8-0.2-1.1-0.4c-0.5-0.3-1-0.4-1.5-0.4c-0.5,0-1,0-1.6,0c-0.9,0-1.7,0.2-2.4,0.5
				c-0.6,0.4-1.2,0.9-1.7,1.7c-0.4,0.7-0.8,1.5-1.1,2.3c-0.4,0.8-0.6,1.6-0.9,2.5c-0.7,2.4-1.2,4.8-1.5,7.3
				c-0.3,2.5-0.5,4.9-0.6,7.4c0,0.7,0.1,1.2,0.3,1.6c0.3,0.4,0.8,0.7,1.4,0.8c1,0.3,2,0.5,3.1,0.5c1,0,2-0.1,3.1-0.3
				c0.8-0.2,1.5-0.5,2.2-1c0.6-0.5,1.3-1,1.8-1.6c0.2-0.2,0.4-0.4,0.5-0.5c0.2-0.2,0.4-0.4,0.6-0.6c0,0.4,0,0.8,0,1.2
				c0,0.4,0,0.7,0,1c0,0.8,0.1,1.3,0.4,1.6c0.3,0.4,0.7,0.6,1.5,0.8c1.8,0.4,3.1,0.6,3.9,0.7c0.7,0.1,1.1-0.1,1.2-0.4
				c0.1-0.3,0.1-0.8,0-1.6c-0.1-0.7-0.1-1.7,0.1-2.9c0.1-1.2,0.2-2.4,0.2-3.7c0-1.3,0.1-2.5,0.3-3.8c0.3-1.4,0.6-2.8,0.9-4.2
				c0.3-1.4,0.5-2.8,0.8-4.2c0.1-0.5,0.2-1.1,0.3-1.7c0.1-0.6,0.1-1.1,0.2-1.7c0-0.3,0-0.5-0.1-0.7c-0.1-0.2-0.2-0.4-0.5-0.5
				c-0.4-0.2-0.7-0.4-1.1-0.4c-0.4-0.1-0.8-0.1-1.2,0c-0.1,0.5-0.2,0.9-0.3,1.3c0,0.4-0.1,0.9-0.2,1.3c-0.1,0-0.1-0.1-0.1-0.1h-0.1
				c0-0.8,0-1.7,0-2.6c-0.5,0-1,0.1-1.4,0.2c-0.4,0.1-0.8,0.4-1,0.9c-0.6-0.1-1.1-0.2-1.7-0.3c-0.5-0.1-1.1-0.1-1.6-0.2
				C595.5,175.7,595.1,175.7,594.7,175.6 M586.9,185.1L586.9,185.1c-0.3,2-0.6,3.9-0.8,5.8c-0.1,1.9-0.2,3.9-0.2,5.9
				c-0.3-0.1-0.5-0.3-0.5-0.5c0-0.2,0-0.4,0-0.5c0-0.8,0-1.6,0.1-2.4s0.1-1.6,0.2-2.3c0.1-1,0.3-2,0.4-3c0.1-1,0.3-2,0.5-3
				c0,0,0.1,0,0.2,0C586.8,185.1,586.8,185.1,586.9,185.1 M591.5,181.3c0.4,0,0.7-0.1,1.1-0.2c0.4-0.1,0.7-0.1,1-0.2
				c0.4,0.9,0.5,2.1,0.3,3.6c-0.3,1.5-0.8,3-1.5,4.5c-0.8,1.5-1.7,2.7-2.8,3.7c0.1-2,0.4-4,0.7-5.9C590.6,185,591,183.1,591.5,181.3
				 M604.2,176.5c0,0,0.1,0,0.2,0l0.1,0.1c0,0.3,0,0.5-0.1,0.7c0,0.2-0.1,0.4-0.1,0.6h-0.1c0-0.3,0-0.5,0-0.7
				C604.2,177,604.2,176.7,604.2,176.5 M597.9,181.7c0,0.4-0.2,0.8-0.4,1.2c0-0.8,0-1.6,0-2.4C597.8,180.9,597.9,181.3,597.9,181.7
				 M598.5,196c-0.1-0.8-0.1-1.5,0-2.3c0.1-0.8,0.2-1.5,0.4-2c0,1,0,2,0,3c0,1,0,2,0,3C598.7,197.3,598.6,196.7,598.5,196
				 M601.7,193.7c0,1,0,2,0,3c-0.2-0.7-0.3-1.6-0.3-2.7c0-1.1,0.1-2.2,0.3-3.2C601.7,191.7,601.7,192.7,601.7,193.7 M589.2,188.1
				c0,0.1,0,0.2,0,0.3C589.2,188.3,589.2,188.2,589.2,188.1c-0.1-0.2-0.1-0.4-0.1-0.5c0,0,0.1,0,0.1,0
				C589.3,187.7,589.3,187.9,589.2,188.1 M589.2,188.6L589.2,188.6c0,0.2,0,0.4-0.1,0.6c0,0.3,0,0.5-0.1,0.7c0,0.6-0.1,1.3-0.1,1.9
				c-0.1,0.6-0.1,1.2-0.2,1.9c-0.1,0-0.1,0-0.2,0c0-0.2,0-0.4-0.1-0.7c0-0.2,0-0.4,0.1-0.7c0-0.6,0.1-1.3,0.2-2c0-0.1,0-0.1,0.1-0.2
				c0-0.1,0.1-0.1,0.2-0.2c-0.1-0.2-0.1-0.4-0.2-0.6C588.9,189,589,188.8,589.2,188.6 M648.1,195.4c-0.1,0-0.3,0.1-0.4,0.1
				c-0.3,0.1-0.5,0.3-0.5,0.5c-0.1,0.2,0,0.4,0.2,0.7c0.1,0.1,0.2,0.3,0.3,0.4c0.1,0.1,0.3,0.2,0.4,0.4c0.1,0.2,0.3,0.3,0.5,0.5
				c0.2,0.1,0.4,0.3,0.6,0.4c1.4,0.8,2.8,1.3,4.3,1.8c1.4,0.4,2.9,0.7,4.4,0.8c0.8,0.1,1.6,0.1,2.4,0.1c0.7,0,1.5-0.1,2.2-0.3
				c1.4-0.4,2.7-1.1,3.7-2.3c1-1.1,1.6-2.5,1.7-3.9c0-0.9-0.1-1.7-0.3-2.5c-0.2-0.8-0.4-1.6-0.8-2.4c-0.4-0.9-0.9-1.7-1.4-2.4
				c-0.6-0.7-1.3-1.3-2.1-1.7c-0.5-0.3-1.1-0.6-1.7-1c-0.6-0.3-1.1-0.6-1.7-1c-0.4-0.2-0.7-0.5-1-0.8c-0.3-0.3-0.6-0.5-0.9-0.9
				c-0.3-0.4-0.5-0.8-0.6-1.3c-0.1-0.5,0-1,0.2-1.5c0.4-0.9,1-1.7,1.7-2.3c0.8-0.6,1.6-1.1,2.5-1.5c0,0.3,0,0.6,0.1,0.9
				c0,0.2,0,0.4,0.1,0.7c0,0.1,0.1,0.3,0.1,0.4c0.1,0.1,0.1,0.3,0.2,0.3c0.2,0.1,0.4,0.2,0.7,0.3c0.3,0.1,0.4,0.2,0.6,0.1
				c0.2-0.1,0.3-0.2,0.4-0.5c0.1-0.3,0.1-0.5,0.2-0.8c0-0.1,0-0.1,0-0.2c0-0.1,0-0.1,0-0.2c0-0.1,0-0.2,0.1-0.3c0,0,0-0.1,0-0.2
				c0,0,0.1,0,0.1,0c0.1,0,0.1,0.1,0.1,0.1c0,0.1,0,0.2,0.1,0.3c0,0.1,0,0.1-0.1,0.2c0,0.1,0,0.2-0.1,0.3c0,0.1,0,0.1,0,0.2
				c0.1,0.2,0.1,0.4,0.1,0.6c-0.1,0.2-0.2,0.4-0.3,0.5h-0.1c0.5,0.1,1,0.1,1.4,0.1c0.5,0,0.9-0.2,1.2-0.5c0.8-0.6,1.1-1.2,1.1-1.8
				c-0.1-0.6-0.5-1.1-1.3-1.6c-0.7-0.4-1.5-0.7-2.2-0.9c-0.8-0.2-1.5-0.3-2.3-0.4c-1.3-0.1-2.6-0.1-3.8,0.2
				c-1.2,0.2-2.4,0.6-3.6,1.2c-0.8,0.4-1.5,0.9-2.2,1.4c-0.6,0.6-1.2,1.3-1.7,2c-0.3,0.6-0.5,1.2-0.5,1.8c0,0.6,0.2,1.2,0.5,1.8
				c0.3,0.5,0.6,0.9,1,1.3c0.4,0.4,0.8,0.7,1.3,1c0.4,0.2,0.7,0.4,1.1,0.6c0.4,0.2,0.7,0.4,1,0.6c0.4,0.3,0.8,0.5,1.2,0.8
				c0.4,0.3,0.8,0.6,1.1,1.1c0.7,1,1.3,2.1,1.6,3.2c0.3,1.1,0.4,2.4,0.3,3.7c-0.1,0.8-0.3,1.6-0.7,2.2c-0.4,0.7-0.9,1.3-1.6,1.7
				c-0.1,0-0.2,0.1-0.3,0.1c-0.1,0-0.2,0-0.2,0c-0.4-0.2-0.7-0.4-1-0.6c-0.3-0.2-0.6-0.4-0.9-0.6c0.1-0.1,0.1-0.3,0.1-0.4
				c0-0.1,0.1-0.3,0.1-0.4c-0.1-0.2-0.2-0.2-0.3-0.2c-0.1,0-0.3,0.1-0.5,0.2c0.1-0.2,0.1-0.4,0.1-0.4c-0.1-0.1-0.2-0.1-0.3-0.1
				c-0.3-0.1-0.6-0.2-0.8-0.2c-0.3,0-0.6,0-0.9,0c-0.1,0-0.1,0-0.2,0c-0.1,0-0.2-0.1-0.3-0.2c-0.1,0-0.2-0.1-0.3-0.1
				c-0.5,0.1-0.9,0.1-1.4,0.2c-0.5,0-0.9,0.1-1.3,0.3C648.3,195.4,648.2,195.4,648.1,195.4 M656.4,179.7c0-0.3,0.1-0.5,0.3-0.7
				c0,0.2-0.1,0.4-0.1,0.7c0,0.2-0.1,0.4-0.1,0.7C656.3,180.2,656.3,179.9,656.4,179.7 M653.7,178.9c0,0.2,0,0.4,0,0.7
				c0,0.2,0,0.4-0.1,0.7c0,0-0.1,0-0.1,0h-0.1c-0.1-0.3-0.2-0.5-0.2-0.7C653.3,179.3,653.5,179.1,653.7,178.9 M662.6,195.8
				c0.1-0.6,0.1-1.1,0.2-1.7c0.1-0.6,0.1-1.1,0.2-1.7c0.3,0.5,0.4,1.1,0.3,1.8C663.2,194.9,662.9,195.4,662.6,195.8 M666.9,194.5
				c0,0.6-0.3,1.2-0.6,1.8c0.1-0.6,0.2-1.2,0.3-1.8c0.1-0.6,0.1-1.2,0.2-1.8C666.9,193.3,666.9,194,666.9,194.5 M616.1,175
				c0-0.1,0-0.3,0-0.4c-0.2,0-0.4,0.1-0.6,0.1c-0.1,0-0.3,0-0.5,0c-0.4,0.1-0.7,0.2-1,0.4c-0.3,0.2-0.5,0.5-0.6,0.9
				c-0.3,0.8-0.6,1.6-1,2.4c-0.4,0.8-0.7,1.7-0.9,2.5c-0.5,1.7-1,3.3-1.3,5c-0.4,1.7-0.9,3.3-1.3,5c-0.3,1-0.5,2.1-0.9,3.1
				c-0.3,1-0.6,2.1-0.8,3.1c-0.2,0.7-0.1,1.3,0.1,1.7c0.2,0.4,0.7,0.7,1.3,1c0.2,0.1,0.4,0.2,0.5,0.2c0.2,0.1,0.4,0.1,0.6,0.2
				c0.7,0.1,1.4,0.2,2.1,0.3c0.7,0.1,1.4,0.1,2.2,0.2c1.2,0,2.4-0.1,3.5-0.3c1.1-0.3,2.3-0.6,3.3-1.1c0.5-0.2,1-0.5,1.5-0.9
				c0.4-0.4,0.8-0.9,1-1.5c0-0.1,0.1-0.2,0.1-0.3c0.1-0.1,0.1-0.2,0.1-0.4c0-0.1,0-0.1-0.1-0.2c-0.1-0.1-0.1-0.2-0.2-0.2
				c0-0.1-0.1-0.1-0.2,0c-0.1,0.1-0.2,0.1-0.2,0.2h-0.1c0,0-0.1,0-0.1,0.1c0-0.1-0.1-0.2-0.1-0.3c0-0.1,0-0.2,0-0.3
				c-0.5-0.1-1-0.2-1.5-0.3c-0.5,0-0.9,0.2-1.3,0.8h-0.1c0,0-0.1,0-0.2,0.1c0-0.1,0.1-0.2,0.1-0.3c0-0.1,0.1-0.2,0.1-0.3
				c-0.1,0-0.1-0.1-0.2-0.1c-0.1,0-0.1,0-0.2,0c-0.4,0-0.9,0.1-1.3,0.3c-0.4,0.1-0.8,0.4-1.2,0.8c-0.3,0.3-0.6,0.6-1,0.8
				c-0.4,0.3-0.8,0.5-1.2,0.5c-0.1-0.5-0.2-1-0.2-1.6c0-0.5,0.1-1.1,0.3-1.7c0.2-1,0.4-2,0.7-3.1c0.3-1,0.5-2,0.8-3
				c0.5-1.9,1-3.9,1.5-5.8c0.5-1.9,1.1-3.9,1.6-5.8c0.2-0.6,0.3-1,0.3-1.2c0-0.2-0.1-0.4-0.3-0.4c-0.2-0.1-0.6-0.3-1.1-0.4
				c-0.5-0.2-1-0.2-1.3-0.1c-0.3,0.1-0.6,0.3-1,0.8C616.1,175.3,616.1,175.2,616.1,175 M610.5,196.5c0-0.3,0.1-0.8,0.4-1.6
				c0,0.4,0,0.8,0,1.2c0,0.4,0,0.9,0,1.3C610.6,197.2,610.5,196.8,610.5,196.5 M613.9,196.1c0,0.3,0,0.6,0,1
				c-0.2-0.3-0.3-0.6-0.3-0.8c0-0.2,0.1-0.6,0.3-1.1C613.9,195.5,613.9,195.8,613.9,196.1 M617.2,171.1c0-0.5,0-1,0.1-1.5
				c0-0.5,0-1-0.2-1.5c-0.3,0-0.6,0.1-0.9,0.2c-0.3,0-0.6,0.1-0.9,0.2c-0.2,0-0.4,0.1-0.4,0.3c-0.1,0.1-0.1,0.3-0.1,0.5
				c0,0.3,0,0.5,0.1,0.8c0,0.3,0,0.5,0,0.9c0.3,0.2,0.6,0.4,0.9,0.4c0.3,0.1,0.6,0.1,1,0.1c0.1,0,0.2-0.1,0.4-0.2
				C617.1,171.3,617.2,171.2,617.2,171.1 M620.8,169.9c0.1-0.5-0.1-0.9-0.4-1.2c-0.4-0.2-0.9-0.4-1.3-0.5c-0.5-0.1-1-0.1-1.5,0.1
				c0,0.6,0,1.1,0,1.7s0,1.1,0,1.7c0.4,0,0.8,0,1.2-0.1c0.4-0.1,0.8-0.2,1.2-0.4C620.5,170.8,620.7,170.5,620.8,169.9 M637.2,152.7
				c-0.1-0.2-0.3-0.3-0.6-0.3c-0.4-0.1-0.7-0.2-1.1-0.2c-0.4,0-0.8,0.1-1.2,0.3h-0.1c-0.9,0-1.5,0.1-1.9,0.4
				c-0.4,0.3-0.6,0.9-0.8,1.7c-0.1,0.3-0.2,0.5-0.3,0.8c0,0.3-0.1,0.6-0.2,0.9c0,0.2-0.1,0.4-0.2,0.5c0,0.2-0.1,0.4-0.1,0.5
				c0,0,0,0.4-0.1,1c-0.1,0.6-0.2,1.4-0.3,2.5c-0.1,1-0.3,2.2-0.5,3.4c-0.1,0.8-0.3,1.9-0.5,3.3c-0.2,1.5-0.4,3.1-0.6,4.9
				c-0.3,1.8-0.5,3.5-0.6,5.1c-0.2,1.6-0.4,2.9-0.5,4l-1.4,16.5c-0.1,0.3-0.1,0.6-0.1,0.9c0,0.3,0,0.6,0.1,0.8c0,0.3,0,0.4,0.1,0.6
				c0.1,0.1,0.3,0.2,0.5,0.3c0.4,0.1,0.8,0.2,1.2,0.3c0.4,0,0.8-0.1,1.2-0.2c0-0.1,0.1-0.1,0.2-0.1c0.1,0,0.1-0.1,0.2-0.1
				c0.4,0.1,0.8,0.1,1.2,0c0.4-0.1,0.8-0.3,1.2-0.4c0.7-0.2,1.2-0.6,1.5-1.1c0.4-0.5,0.5-1.1,0.5-1.8c-0.1-0.6-0.1-1.2-0.1-1.8
				c0-0.6,0.1-1.1,0.1-1.7c0-0.6,0-1.1,0.1-1.7c0-0.6,0.1-1.1,0.1-1.7l0.6,1.1l0.1-0.2c0.6,0.8,1.2,1.5,1.7,2.3
				c0.6,0.7,1.1,1.5,1.7,2.2c0.4,0.6,0.9,1.1,1.5,1.5c0.6,0.3,1.3,0.6,2,0.8l1.1,0.2l-0.3-0.5l0.1-0.1l0.4,0.3
				c0.1,0.1,0.2,0.1,0.3,0.2c0.1,0.1,0.2,0.1,0.3,0.1c0.2,0,0.4,0,0.6-0.1s0.4-0.1,0.6-0.1c0.3,0,0.4-0.1,0.5-0.2
				c0.1-0.1,0.1-0.3,0.1-0.5c0-0.1-0.1-0.1-0.1-0.2c0-0.1,0.1-0.2,0.1-0.3h0.1c0,0.1,0,0.3,0.1,0.5c0,0.1,0,0.3,0,0.5
				c0.3-0.1,0.4-0.2,0.6-0.3c0.1-0.1,0.3-0.3,0.3-0.4c0.1-0.3,0.1-0.5-0.1-0.6s-0.2-0.3-0.3-0.4l-4.2-4.6c-0.8-0.8-1.4-1.7-1.9-2.7
				c-0.5-1-1-2-1.5-3c-0.1-0.1-0.1-0.3-0.1-0.4c0-0.1,0-0.3,0.1-0.4c1.5-2.9,3.1-5.7,4.8-8.5c0.4-0.6,0.7-1.2,1-1.8
				c0.4-0.6,0.7-1.3,1-1.9c0.1-0.2,0.2-0.4,0.2-0.5c0-0.1-0.2-0.1-0.4-0.2l-0.3,0.4V172c-0.4-0.1-0.7-0.2-1.1-0.2
				c-0.4,0-0.7,0.1-1,0.4l0.2-0.4c-0.5,0-1,0.1-1.5,0.2c-0.4,0.2-0.8,0.5-1.1,0.9l-5.9,8.9c0-0.3,0-0.5,0-0.7c0-0.2,0-0.4,0.1-0.6
				c0-0.7,0-2,0.2-3.8c0.2-1.8,0.4-3.9,0.6-6.3c0.3-2.4,0.5-4.7,0.8-7.1c0.2-2.4,0.4-4.5,0.6-6.2c0.2-1.8,0.3-3,0.3-3.7
				C637.3,153,637.3,152.8,637.2,152.7 M631.2,175.4l0.1-1.2c0.1,0.1,0.1,0.1,0.2,0.1h0.1l-0.1,1.1h-0.1c0,0-0.1,0-0.1-0.1
				C631.2,175.4,631.2,175.4,631.2,175.4 M630.9,179.9c0-0.2,0-0.4,0.1-0.5v-0.1l0.1-0.1l-0.1,1.3c0,0-0.1-0.1-0.1-0.1h-0.1
				C630.9,180.3,630.9,180.1,630.9,179.9 M630.9,181.3c0,0,0.1,0,0.1,0.1c0,0.1-0.1,0.3-0.1,0.5c0,0.2,0,0.4-0.1,0.5
				c0,0-0.1,0-0.1,0.1l-0.1,0.1l0.1-1.3C630.9,181.3,630.9,181.3,630.9,181.3 M633.3,196C633.2,196,633.2,196,633.3,196l-0.1-0.6
				l0.1-0.1L633.3,196 M629.9,194h0.2l-0.2,3.3c0,0-0.1,0-0.1-0.1L629.9,194 M629.7,199.4c0,0,0.1,0,0.1,0.1c0,0-0.1,0.1-0.1,0.2
				c0,0.1,0,0.1,0.1,0.2c0,0-0.1,0-0.1,0.1c0,0-0.1,0-0.1-0.1L629.7,199.4 M495.7,205.7c0,0.1,0,0.2,0,0.2c0,0.1,0,0.1,0.1,0.2
				c0.1,0.1,0.2,0.1,0.3,0.2c0.1,0,0.3,0.1,0.4,0.1c0,0,0.1,0,0.1,0h0.1c0.1,0.1,0.2,0.1,0.4,0.1c0.1,0,0.2,0.1,0.4,0.1
				c0.3,0,0.4-0.1,0.6-0.2c0.1-0.1,0.3-0.3,0.4-0.5c0-0.2,0.1-0.4,0.2-0.5c0.1-0.2,0.1-0.4,0.2-0.5c0.3-0.6,0.5-1.3,0.8-2
				c0.3-0.7,0.6-1.3,0.8-2c0.3-0.8,0.6-1.5,0.9-2.1c0.3-0.6,0.6-1.3,0.9-1.9c0.3-0.6,0.6-1.3,1-2c0.1-0.3,0.2-0.6,0.4-0.9
				c0.1-0.3,0.2-0.6,0.4-0.9c0,0,0-0.1,0-0.2c0,0,0-0.1-0.1-0.2c-0.1-0.1-0.2-0.1-0.4-0.2c-0.1-0.1-0.2-0.1-0.4-0.1
				c-0.3-0.1-0.5-0.1-0.6-0.1c-0.2,0-0.3,0.2-0.5,0.4c0,0.1-0.1,0.1-0.2,0.2c0,0.1,0,0.2-0.1,0.3c-0.1,0.1-0.3,0.3-0.4,0.6
				c-0.1,0.4-0.3,0.8-0.5,1.3c-0.3,0.5-0.5,0.9-0.7,1.4c-0.2,0.3-0.4,0.6-0.6,1.1c-0.2,0.5-0.4,0.9-0.7,1.4
				c-0.2,0.5-0.4,0.9-0.6,1.2l-0.3,0.5l-1.9,4.4c-0.1,0.1-0.1,0.2-0.1,0.3C495.8,205.6,495.8,205.7,495.7,205.7 M497.1,205.4
				L497.1,205.4l0.4-1h0.1L497.1,205.4L497.1,205.4 M496.8,206.1c0,0-0.1,0.1-0.1,0.1h-0.1L496.8,206.1L496.8,206.1L496.8,206.1
				 M499.4,200L499.4,200l-0.2,0.4v-0.1c0-0.1,0-0.1,0.1-0.2C499.3,200.1,499.4,200.1,499.4,200 M500,198.5l-0.2,0.4v-0.1h-0.1
				L500,198.5L500,198.5 M499.1,200.8l0.1-0.2h0.1C499.1,200.7,499.1,200.7,499.1,200.8 M498.3,205.3
				C498.3,205.3,498.2,205.4,498.3,205.3v-0.2l0.1-0.1L498.3,205.3 M511.4,171.9c-0.4-0.4-0.9-0.6-1.5-0.7c-1.5-0.4-2.9-0.5-4.4-0.4
				c-1.4,0.1-2.8,0.7-4.1,1.6c-0.1,0.1-0.2,0.2-0.4,0.2c-0.1,0-0.3,0-0.4-0.1c-0.4-0.1-0.7-0.1-1-0.2c-0.3,0-0.6-0.1-0.9-0.1
				c-0.1,0.5-0.2,1-0.3,1.5c-0.1,0.5-0.1,0.9-0.2,1.3c0,0-0.1,0-0.1,0H498c0-0.4,0-0.9,0-1.3c0-0.4,0-0.8,0-1.3
				c-0.9-0.1-1.5-0.1-1.9,0.2c-0.4,0.3-0.7,0.8-0.9,1.5c-1.2,3.3-2.1,6.7-2.8,10.1c-0.6,3.4-1.2,6.9-1.7,10.4
				c-0.1,0.8-0.1,1.6-0.2,2.4c-0.1,0.8-0.2,1.6-0.2,2.3c0,0.3,0,0.5,0,0.8c0,0.3,0.2,0.4,0.4,0.5c0.3,0.1,0.7,0.2,1,0.3
				c0.3,0.1,0.7,0.2,1,0.2c0.1,0,0.1-0.1,0.2-0.2c0.1-0.1,0.2-0.1,0.3-0.2c0.2,0.1,0.3,0.1,0.5,0.2c0.2,0.1,0.3,0.1,0.5,0.1
				c0.2,0,0.4,0,0.6-0.1c0.3,0,0.5,0,0.7-0.1c0.6-0.1,1.1-0.3,1.5-0.6c0.4-0.4,0.6-0.9,0.8-1.5c0.3-1.6,0.6-3.2,0.9-4.9
				c0.3-1.6,0.6-3.2,1-4.8c0.1-0.7,0.2-1.4,0.3-2c0.1-0.7,0.3-1.3,0.5-2c0.6-1.6,1.2-3.2,1.9-4.6c0.8-1.5,1.6-3,2.5-4.4
				c0.2-0.3,0.4-0.6,0.7-1c0.2-0.3,0.5-0.7,0.8-1c0.1,0.3,0.2,0.5,0.2,0.7c0.1,0.3,0.1,0.4,0.2,0.6c0.1,0.5,0.1,1.1,0.2,1.7
				c0.1,0.5,0.2,1.1,0.3,1.7c0.3,1.8,0.3,3.6,0.2,5.4c-0.1,1.8-0.5,3.6-1.2,5.3c-0.5,1.4-1,2.8-1.4,4.3c-0.1,0.7-0.3,1.5-0.4,2.3
				c-0.1,0.8-0.2,1.5-0.3,2.3c-0.1,0.2-0.1,0.4,0,0.6c0.1,0.2,0.2,0.3,0.4,0.4c0.4,0.1,0.8,0.3,1.2,0.4c0.4,0.1,0.8,0.1,1.2,0.1
				c0.1-0.5,0.3-0.9,0.3-1.3c0.1-0.5,0.2-0.9,0.3-1.3c0.1,0,0.1,0,0.2,0h0.1c0,0.5,0,0.9,0,1.4c0,0.4,0,0.9,0,1.3c0.2,0,0.4,0,0.6,0
				c0.2,0,0.4,0,0.6,0c0.4,0,0.7-0.1,0.9-0.3c0.3-0.1,0.5-0.4,0.5-0.8c0,0,0-0.1,0.1-0.1h0.1c0,0.1,0.1,0.2,0.1,0.3
				c0,0.1,0,0.2,0,0.4c0.3-0.1,0.4-0.2,0.6-0.4c0.1-0.2,0.2-0.4,0.3-0.5c0.1-0.4,0.2-0.7,0.3-1.1c0.1-0.4,0.2-0.8,0.4-1.2
				c0.9-2.9,1.5-5.8,1.8-8.7c0.3-2.9,0.2-5.9-0.3-8.9c-0.1-0.9-0.3-1.8-0.5-2.7c-0.3-0.9-0.6-1.8-1.1-2.6
				C512.1,172.7,511.8,172.3,511.4,171.9 M513,178h0.2c0,0.2,0,0.3-0.1,0.5c0,0.1-0.1,0.2-0.1,0.3c0-0.1,0-0.2,0-0.4
				C513,178.4,513,178.2,513,178 M513,179c0.1,0.1,0.1,0.1,0.2,0.2c0.1,0.1,0.1,0.1,0.1,0.2c0.2,1.4,0.3,2.8,0.3,4.1
				c0,1.4-0.1,2.8-0.3,4.2c0,0.1,0,0.2-0.1,0.3c0,0-0.1,0.1-0.1,0.2c0,0-0.1,0.1-0.1,0.1c0,0,0-0.1,0-0.1h0.1c0.2-1.5,0.3-3,0.2-4.5
				C513.3,182.1,513.2,180.5,513,179 M510.2,179.4c-0.1-1-0.1-1.9-0.2-2.9c0.5,2,0.8,4,0.8,5.9c0.1,2-0.2,3.9-0.8,5.9
				c0-1,0.1-2,0.2-3c0.1-1,0.1-1.9,0.1-2.9C510.3,181.4,510.2,180.5,510.2,179.4 M513.1,188.6c0,0.2,0.1,0.3,0.1,0.5
				c-0.1,0-0.1,0.1-0.2,0.1C513,189,513,188.8,513.1,188.6c-0.1-0.1-0.1-0.2-0.1-0.3C513,188.4,513,188.5,513.1,188.6 M525.4,176.3
				c-0.1,0.1-0.1,0.2-0.2,0.3c-0.1,0.1-0.1,0.2-0.2,0.3H525c0-0.1,0-0.2,0.1-0.4c0-0.1,0-0.3,0-0.4c-0.3-0.1-0.6-0.1-0.8-0.2
				c-0.3-0.1-0.5-0.1-0.8-0.2c-0.2,0-0.3,0-0.4,0.1c-0.1,0.1-0.2,0.2-0.2,0.3s-0.1,0.3-0.2,0.5c0,0.1-0.1,0.3-0.1,0.4h-0.1
				c0-0.2,0-0.4,0-0.6c0-0.3,0.1-0.5,0.1-0.8c-0.4,0-0.7,0.1-1,0.1c-0.4,0.1-0.7,0.1-1,0.2c-0.2,0-0.4,0.1-0.5,0.2
				c-0.1,0.1-0.3,0.3-0.3,0.5c-0.4,0.8-0.6,1.6-0.9,2.4c-0.2,0.8-0.4,1.7-0.5,2.5c-0.2,1.7-0.4,3.4-0.5,5.2
				c-0.2,1.7-0.4,3.4-0.5,5.2c-0.1,0.5-0.1,0.9-0.1,1.4s0,0.9,0.1,1.4c0.1,0.9,0.3,1.7,0.8,2.4c0.5,0.7,1.2,1.2,2.2,1.6
				c0.7,0.2,1.4,0.3,2,0.5c0.7,0.1,1.4,0.2,2.2,0.2c0.6,0,1.2-0.1,1.8-0.2c0.6-0.1,1.2-0.2,1.8-0.4c0.3,0.4,0.7,0.7,1.2,0.9
				c0.5,0.2,1,0.3,1.5,0.4c0-0.2,0-0.3,0-0.5c0-0.1,0-0.2,0-0.3c0-0.2,0.1-0.3,0.2-0.5c0-0.1,0.1-0.3,0.1-0.4c0-0.2,0.1-0.4,0.1-0.5
				c0-0.1,0-0.3,0-0.5c0-0.1,0-0.2,0.1-0.3c0.1-0.1,0.1-0.2,0.2-0.3c0.1,0,0.1,0,0.2,0c0,0.5,0,1,0,1.5c0,0.5-0.1,1-0.1,1.5
				c0,0.1,0,0.2-0.1,0.3c0,0.1,0.1,0.1,0.2,0.2c0.5,0.1,0.9,0.1,1.4,0.1c0.5,0,0.9-0.1,1.4-0.3c0.3-0.1,0.5-0.4,0.6-0.6
				c0.1-0.3,0.1-0.7,0.1-1.1c-0.1-0.7-0.3-1.4-0.3-2c-0.1-0.6-0.1-1.3,0.1-2c0.3-1.3,0.6-2.6,0.8-3.9c0.3-1.4,0.5-2.7,0.9-4
				c0.3-1.3,0.5-2.7,0.6-4c0.1-1.4,0.3-2.7,0.3-4.1c0-0.1,0-0.2-0.1-0.4c0-0.1-0.1-0.3-0.2-0.3c-0.3-0.1-0.6-0.3-0.9-0.3
				c-0.3-0.1-0.6-0.2-1-0.3c-0.1,0-0.2,0-0.3,0c-0.1,0-0.1,0.1-0.1,0.3c0,0.2-0.1,0.4-0.2,0.6c0,0.2-0.1,0.4-0.2,0.7
				c-0.1,0.9-0.2,1.7-0.3,2.5c-0.1,0.9-0.3,1.7-0.4,2.6c-0.3,1.8-0.7,3.6-1.1,5.4c-0.4,1.8-0.8,3.6-1,5.4c0,0,0,0.1-0.1,0.2
				c0,0-0.1,0.1-0.1,0.2c0-0.1-0.1-0.1-0.1-0.2c0-0.1-0.1-0.1-0.1-0.2c0-0.2,0-0.4,0.1-0.6c0-0.2,0.1-0.4,0.1-0.7
				c0.3-1.1,0.5-2.3,0.8-3.5c0.3-1.2,0.5-2.4,0.8-3.6c0.2-1.5,0.4-3.1,0.7-4.6c0.3-1.5,0.5-3.1,0.8-4.7c-0.2,0.1-0.4,0.1-0.6,0.1
				c-0.3,0-0.5,0.1-0.8,0.1c-0.3,0-0.5,0.1-0.7,0.3c-0.2,0.2-0.3,0.4-0.4,0.6c-0.1,0.3-0.1,0.6-0.2,0.9c-0.1,0.3-0.1,0.5-0.2,0.9
				c-0.1,0.8-0.2,1.6-0.3,2.4c-0.1,0.8-0.3,1.6-0.4,2.3c-0.4,1.6-0.7,3.1-1,4.7c-0.3,1.6-0.6,3.1-0.9,4.7c-0.1,0.3-0.2,0.5-0.3,0.8
				c-0.1,0.2-0.3,0.3-0.6,0.3c-0.1,0-0.1,0-0.2,0c0,0-0.1,0.1-0.2,0.1c-0.6,0.2-1.1,0.4-1.7,0.6c-0.6,0.2-1.2,0.4-1.8,0.6
				c0-0.2-0.1-0.4-0.2-0.6c0-0.1-0.1-0.3-0.1-0.4c0-0.5-0.1-1-0.1-1.5c0-0.4,0-0.9,0.1-1.4c0.1-1,0.2-2.1,0.3-3.1c0.1-1,0.3-2,0.4-3
				c0.1-1,0.3-1.9,0.4-2.9c0.1-1,0.2-1.9,0.4-2.9c0-0.5,0.1-1.1,0.3-1.6c0.2-0.5,0.3-1,0.4-1.5c0-0.3,0-0.4-0.1-0.5
				C525.8,176.4,525.6,176.3,525.4,176.3 M524.6,178.5c0-0.1,0-0.1,0.1-0.2c-0.5,2.7-0.8,5.4-1.1,8c-0.3,2.7-0.6,5.4-0.9,8.1
				c0-0.4,0-0.9,0-1.3c0-0.4,0-0.9,0-1.3c0.2-1.8,0.4-3.5,0.6-5.3c0.2-1.8,0.4-3.5,0.6-5.3c0-0.4,0.1-0.9,0.2-1.3
				c0.1-0.4,0.3-0.9,0.3-1.4C524.6,178.6,524.6,178.5,524.6,178.5 M522,178.5c0,0,0-0.1,0-0.1s0-0.1,0.1-0.2c-0.4,2.8-0.7,5.6-1,8.3
				c-0.3,2.7-0.5,5.5-0.6,8.2h-0.1c0,0-0.1,0-0.1,0c0-0.2-0.1-0.4-0.1-0.7c0-0.3-0.1-0.5-0.1-0.8c0.1-1,0.1-1.9,0.2-2.9
				c0.1-1,0.2-1.9,0.3-2.9c0.1-1.3,0.3-2.5,0.5-3.8c0.2-1.2,0.4-2.5,0.5-3.7C521.6,179.5,521.8,179,522,178.5 M536.6,177.9
				c0,0,0.1,0,0.1,0c0,0.1,0,0.1,0.1,0.2c0,0.1,0,0.2-0.1,0.2c-0.1,2.1-0.3,4.1-0.7,6.1c-0.3,2-0.7,4-1.2,5.9c-0.3,1-0.5,2-0.6,3
				c-0.1,1-0.2,2.1-0.1,3.1c0,0.1,0,0.1,0,0.2c-0.2-0.5-0.3-1.1-0.3-1.7c0-0.6,0.1-1.1,0.2-1.7c0.2-0.9,0.4-1.8,0.6-2.7
				c0.2-0.9,0.4-1.8,0.6-2.7c0.3-1.5,0.5-3.1,0.7-4.7c0.2-1.6,0.4-3.2,0.5-4.8c0-0.1,0.1-0.1,0.1-0.2S536.6,178,536.6,177.9
				 M534,198.4c0-0.2,0.1-0.4,0.1-0.6c0,0.2,0.1,0.4,0.1,0.6c0.1,0.2,0,0.4-0.3,0.6C534,198.8,534,198.6,534,198.4 M472.6,174.4
				c-1.5,1-2.7,2.5-3.6,4.4c-0.7,1.5-1.4,3-2.1,4.5c-0.7,1.5-1.3,3-2,4.6c-0.3,0.6-0.4,1.3-0.6,1.9c-0.2,0.7-0.3,1.4-0.4,2.1
				c-0.1,1.5,0.1,2.7,0.8,3.8c0.6,1.1,1.7,1.9,3.3,2.4c0.5,0.1,1.1,0.3,1.7,0.3c0.6,0.1,1.1,0.2,1.7,0.2c1.9,0.1,3.7,0,5.4-0.3
				c1.8-0.4,3.5-0.9,5.2-1.6c0.3-0.1,0.6-0.2,0.9-0.2c0.3-0.1,0.6-0.1,0.9-0.2c0.2,0,0.4-0.1,0.6-0.1c0.3,0,0.4-0.1,0.4-0.2
				c0.1-0.3,0.3-0.4,0.4-0.3c0.2,0.1,0.3,0.1,0.5,0c0.1,0,0.1,0,0.2-0.1s0.1-0.1,0.1-0.1c0.1-0.3,0.2-0.5,0.1-0.7
				c-0.1-0.2-0.3-0.4-0.7-0.5c-0.9-0.3-1.8-0.5-2.8-0.5c-1,0-1.9,0.1-2.9,0.3c-1.1,0.3-2.1,0.5-3.2,0.8c-1,0.3-2,0.6-3.1,1
				c-0.3,0.1-0.5,0.1-0.7,0.1c-0.2,0-0.4-0.1-0.6-0.3c-0.4-0.4-0.6-0.9-0.9-1.3c-0.2-0.5-0.3-1-0.4-1.6c-0.1-0.9,0-1.9,0.1-2.8
				c0.2-0.9,0.5-1.8,0.9-2.7c0.2,0,0.3-0.1,0.5-0.1c0.1,0,0.3-0.1,0.4-0.1c2.4-0.3,4.6-0.8,6.7-1.6c2.2-0.8,4.2-1.9,6-3.3
				c0.4-0.3,0.7-0.6,1-0.9c0.3-0.3,0.6-0.7,0.9-1c0.4-0.6,0.7-1.2,0.7-1.8c0-0.6-0.2-1.2-0.6-1.8c-0.6-1-1.4-1.8-2.3-2.5
				c-0.9-0.7-2-1.1-3.1-1.4c-0.7-0.1-1.4-0.2-2-0.3c-0.7,0-1.4,0-2,0.1C475.9,172.6,474.1,173.3,472.6,174.4 M474.1,181.3
				c0.4-0.8,0.7-1.5,1.1-2.3c0.3-0.7,0.7-1.3,1.2-2c0.4-0.6,1-1.2,1.6-1.7c0.1-0.1,0.3-0.2,0.5-0.3c0.2-0.1,0.4-0.3,0.6-0.4
				c0.3,0.4,0.6,0.8,0.8,1.1c0.3,0.4,0.5,0.8,0.8,1.1c0.2,0.3,0.3,0.7,0.3,1.1c0,0.4-0.1,0.7-0.3,1.1c-0.2,0.3-0.4,0.5-0.5,0.7
				c-0.2,0.3-0.4,0.5-0.6,0.7c-0.9,0.8-1.9,1.6-2.9,2.2c-1,0.6-2.1,1.1-3.2,1.6c0,0-0.1,0.1-0.2,0.1c-0.1,0-0.2,0-0.3,0
				c0-0.1,0.1-0.2,0.1-0.3c0-0.1,0.1-0.2,0.1-0.3C473.4,182.8,473.7,182.1,474.1,181.3 M469.9,190.9c0,0,0-0.1,0.1-0.1
				c0,0.7,0,1.3,0,2h-0.2c0-0.3,0-0.6,0-1C469.8,191.5,469.8,191.2,469.9,190.9L469.9,190.9 M466.8,191.8c0.1-0.5,0.3-1.1,0.5-1.6
				c0,0.5,0,1.1,0,1.7c0,0.5,0,1.1,0,1.7C466.9,192.9,466.7,192.4,466.8,191.8 M483.7,178.4c0-0.1,0.1-0.3,0.1-0.4
				c0-0.1,0-0.3,0-0.5c0.3,0.2,0.4,0.3,0.4,0.5c0,0.2-0.1,0.3-0.2,0.5c0,0-0.1,0-0.1-0.1C483.8,178.4,483.7,178.4,483.7,178.4
				 M487.1,178.5H487c0,0-0.1,0-0.2,0c0-0.1,0-0.2,0-0.3c0-0.1,0-0.2,0-0.4c0.1,0,0.2,0,0.3,0c0,0.1,0,0.2,0,0.3
				C487.1,178.3,487.1,178.4,487.1,178.5 M469.8,167.3c-0.1,0-0.1,0.1-0.1,0.2c0,0.2,0,0.3,0,0.5c0,0.2,0.1,0.3,0.2,0.5l0.1,0.1
				c0,0.2,0,0.4,0.1,0.5c0.1,0.1,0.2,0.3,0.3,0.4c0.1,0.3,0.3,0.5,0.6,0.5c0.2,0.1,0.5,0.1,0.8,0.1c0.2,0,0.4-0.1,0.7-0.1
				s0.5-0.1,0.7-0.1c0.9-0.1,1.8-0.3,2.7-0.4c0.9-0.1,1.8-0.2,2.7-0.4c1-0.2,2-0.3,2.9-0.4c0.9-0.1,1.8-0.2,2.7-0.3
				c0.9-0.1,1.9-0.1,3-0.2c0.4-0.1,0.8-0.1,1.2-0.2s0.8-0.1,1.2-0.1c0.1,0,0.2-0.1,0.2-0.1c0.1,0,0.1-0.1,0.1-0.3s0-0.3,0-0.5
				c0-0.1-0.1-0.3-0.3-0.4v-0.1c0-0.3-0.1-0.6-0.3-0.7c-0.1-0.1-0.4-0.2-0.7-0.2c-0.1,0-0.3-0.1-0.4-0.1s-0.2,0-0.4,0
				c-0.1,0-0.5,0-1,0c-0.5,0-1.1,0.1-1.8,0.2c-0.7,0-1.4,0.1-2,0.1c-0.4,0-0.9,0-1.6,0.1c-0.6,0-1.3,0.1-2,0.1
				c-0.7,0-1.3,0.1-1.7,0.1c-0.5,0-0.7,0.1-0.8,0.1l-6.1,0.6c-0.1,0-0.3,0-0.4,0.1c-0.1,0-0.3,0.1-0.3,0.1
				C469.9,167.2,469.9,167.3,469.8,167.3 M472.7,168.2L472.7,168.2l-1.3,0.2c0,0,0,0,0-0.1L472.7,168.2 M470.3,168.6L470.3,168.6
				c-0.1-0.1-0.1-0.1-0.1-0.1l0.2,0.1v0.1C470.4,168.6,470.4,168.6,470.3,168.6C470.3,168.6,470.3,168.6,470.3,168.6 M472.2,169.7
				L472.2,169.7l0.2-0.1v0.1L472.2,169.7 M478.3,167.5c0.1,0,0.1,0,0.2,0c0.1,0,0.1,0,0.2,0l0.1,0.1l-0.5,0.1V167.5 M480.4,167.4
				L480.4,167.4l0.5-0.1v0.1L480.4,167.4 M478,167.6L478,167.6c0,0.1,0,0.1,0,0.1c-0.1,0-0.1,0-0.2,0c-0.1,0-0.1,0-0.2,0h-0.1
				L478,167.6 M451.7,156.2c-2.1,0.4-3.9,1.1-5.4,2.3c-1.5,1.1-2.8,2.6-3.9,4.4c-0.9,1.5-1.3,3-1.1,4.4c0.1,1.4,0.7,2.8,1.9,4.1
				c0.3,0.3,0.5,0.6,0.9,1c0.3,0.3,0.7,0.6,1,0.9c0.6,0.5,1.1,1.1,1.7,1.6c0.6,0.5,1.2,1.1,1.8,1.7c0.7,0.6,1.3,1.4,1.8,2.2
				c0.5,0.8,1,1.6,1.4,2.4c0.8,1.6,1.2,3.2,1.3,4.8s-0.2,3.2-1,4.8c-0.2,0.5-0.4,0.9-0.6,1.4c-0.2,0.5-0.4,1-0.7,1.5
				c-0.5,0.9-1.1,1.7-1.8,2.4c-0.7,0.7-1.5,1.3-2.4,2c-0.5-0.5-1-1-1.3-1.5c-0.3-0.5-0.6-1.1-0.8-1.7c-0.1-0.4-0.3-0.9-0.5-1.3
				c-0.1-0.5-0.3-1-0.4-1.5c-0.1-0.4-0.3-0.6-0.5-0.9c-0.2-0.2-0.5-0.4-0.9-0.5c-0.8-0.2-1.6-0.3-2.4-0.3c-0.8,0-1.5,0.1-2.3,0.3
				c-0.5,0.1-0.9,0.3-1.2,0.7c-0.3,0.3-0.4,0.8-0.4,1.3c0,0.4,0.1,0.7,0.2,0.9c0.1,0.2,0.4,0.4,0.7,0.4c0.4,0.1,0.7,0.3,0.9,0.5
				c0.2,0.2,0.3,0.5,0.5,0.8c0.6,1.2,1.3,2.3,2.2,3.2c0.9,0.9,2,1.4,3.4,1.7c1.6,0.3,3.2,0.4,4.8,0.2c1.6-0.3,3.1-0.8,4.5-1.8
				c1.5-0.9,2.8-2,3.9-3.3c1.1-1.2,2-2.7,2.8-4.3c0.9-1.9,1.3-3.8,1.1-5.7c-0.2-1.9-0.8-3.8-1.9-5.5c-0.5-0.8-1-1.5-1.6-2.2
				c-0.6-0.7-1.2-1.3-1.9-1.9c-0.8-0.6-1.5-1.2-2.2-1.8c-0.7-0.6-1.4-1.1-2.2-1.7c-0.5-0.4-1-0.9-1.5-1.3c-0.5-0.5-0.9-1-1.2-1.6
				c-0.4-0.6-0.7-1.3-0.9-2c-0.1-0.6-0.1-1.3,0-2c0.4-1.5,1-2.8,1.9-3.8c0.9-1,2-1.9,3.2-2.7c0.3,0.3,0.4,0.7,0.5,1
				c0.1,0.4,0.2,0.7,0.3,1.1c0.1,0.2,0.1,0.4,0.2,0.5c0.1,0.2,0.2,0.3,0.3,0.4c0.3,0.1,0.6,0.2,0.8,0.3c0.3,0.1,0.6,0.1,0.9-0.1
				c0-0.4,0-0.7,0.1-1c0-0.3,0-0.7,0.1-1c0,0,0.1,0,0.2,0c0,0,0.1,0,0.1,0c0,0.4,0.1,0.7,0.2,1c0,0.3,0.1,0.7,0.1,1.1
				c0.4,0,0.7,0.1,1,0.1c0.3,0,0.6-0.2,0.9-0.5c0.4,0.1,0.6,0.1,0.7-0.2c0.1-0.2,0.1-0.4,0.2-0.7c0.3-0.9,0.2-1.8-0.2-2.5
				c-0.4-0.8-1.1-1.3-2-1.7c-0.9-0.3-1.8-0.4-2.7-0.5C453.6,156,452.7,156,451.7,156.2 M458.8,159.5c0,0,0.1,0,0.1,0h0.1
				c0,0.3,0,0.5,0,0.8h-0.1c0-0.1-0.1-0.2-0.1-0.4S458.8,159.6,458.8,159.5 M456.5,183.8c0.3,0.7,0.5,1.4,0.5,2
				c0,0.7-0.1,1.4-0.3,2.1c0,0-0.1,0-0.2,0c0,0-0.1,0-0.1-0.1c0-0.7,0-1.4,0-2C456.5,185.2,456.5,184.5,456.5,183.8 M459.8,184
				c0.3,0.6,0.4,1.2,0.4,1.8c0,0.6,0,1.2-0.2,1.8c0-0.3-0.1-0.6-0.1-0.9c0-0.3,0-0.6,0-0.9c0-0.3,0-0.6,0-0.9
				C459.8,184.6,459.8,184.3,459.8,184 M444.1,166.4c0-0.3,0.1-0.6,0.4-1c0,0.6,0,1.3,0,1.9C444.3,167,444.1,166.7,444.1,166.4
				 M562.4,155.6c-0.6,0.1-1,0.4-1.2,1c0,0.2-0.1,0.4-0.2,0.6c0,0.2-0.1,0.4-0.2,0.7c-0.1,1.2-0.3,2.4-0.5,3.5
				c-0.2,1.2-0.3,2.4-0.5,3.6c-0.3,3.1-0.7,6.2-1,9.3c-0.3,3.1-0.6,6.2-0.9,9.4c-0.1,0.9-0.2,1.7-0.4,2.6c-0.1,0.9-0.3,1.7-0.5,2.6
				c-0.3,1.2-0.6,2.3-0.9,3.4c-0.3,1.1-0.6,2.2-0.9,3.3c-0.2,0.5-0.2,0.8-0.2,1c0.1,0.2,0.3,0.4,0.8,0.4c0.6,0.2,1.2,0.3,1.8,0.5
				c0.6,0.1,1.1,0.3,1.7,0.3c0.9,0,1.8,0.1,2.6,0.2c0.9,0.1,1.8,0.2,2.6,0.3c1.5,0.2,3.1,0.4,4.7,0.5c1.5,0.1,3.1,0.3,4.6,0.3
				c0.9,0.1,1.8,0.1,2.7,0.1c0.9,0,1.8-0.1,2.7-0.4c0.2,0,0.4-0.1,0.5-0.2c0.1-0.1,0.3-0.1,0.4-0.2c0.2-0.2,0.3-0.4,0.3-0.5
				c0-0.2-0.2-0.4-0.4-0.5c-0.3-0.1-0.5-0.3-0.8-0.4c-0.3-0.1-0.6-0.2-0.9-0.2c-0.5-0.1-1-0.3-1.6-0.3c-0.6-0.1-1.1-0.1-1.7-0.2
				c-0.6,0-1.2,0.1-1.8,0.2c-0.6,0.1-1.2,0.1-1.8,0.1c-1.7,0-3.3-0.1-5-0.3c-1.6-0.2-3.3-0.4-4.9-0.6c-0.1-0.1-0.1-0.1-0.2-0.2
				c0-0.1,0-0.2,0.1-0.3c0-0.1,0.1-0.1,0.1-0.2c0.6-1.7,1.2-3.4,1.6-5.1c0.4-1.7,0.8-3.5,1-5.3c0.3-1.8,0.5-3.5,0.7-5.3
				s0.4-3.5,0.6-5.3c0.2-2,0.3-4,0.5-6c0.2-2,0.4-4,0.6-6c0-0.8,0.1-1.6,0.2-2.4c0.1-0.8,0.1-1.7,0.2-2.5c0-0.1,0.1-0.3,0.1-0.4
				c0-0.2-0.1-0.3-0.2-0.4c-0.4-0.2-0.8-0.4-1.2-0.5c-0.4-0.1-0.8-0.2-1.3-0.1c-0.1,0.2-0.1,0.4-0.2,0.5c0,0.2-0.1,0.4-0.2,0.6
				c0,0-0.1,0-0.1-0.1c0,0-0.1,0-0.1,0c0-0.2,0.1-0.4,0.1-0.6c0-0.2,0.1-0.4,0.2-0.7c-0.3,0-0.6,0-0.9,0S562.6,155.6,562.4,155.6
				 M558.2,195C558.3,195,558.3,195,558.2,195c0,0.1,0,0.2,0,0.3c0,0.1-0.1,0.2-0.1,0.3c0,0-0.1,0-0.1,0c0,0-0.1,0-0.1-0.1
				c0,0,0-0.1,0.1-0.2C558.1,195.2,558.1,195.1,558.2,195c0,0,0-0.1,0-0.1C558.2,194.9,558.2,194.9,558.2,195 M566.1,158.1
				c0-0.1,0-0.3,0.1-0.4c-0.4,3.6-0.7,7.1-1,10.7c-0.3,3.6-0.6,7.2-1,10.7c-0.4,3.6-1,7.1-1.8,10.6c0-0.2,0.1-0.4,0.1-0.7
				c0-0.2,0-0.4,0.1-0.7c0.6-3.4,1.1-6.8,1.5-10.2c0.4-3.4,0.8-6.8,1.1-10.2c0.1-1.5,0.2-3.1,0.4-4.6c0.1-1.5,0.3-3.1,0.4-4.6
				C566,158.4,566.1,158.3,566.1,158.1z"/>
		</g>
	</g>
</g>
<path class="st11" d="M555.4,215.5h-7.2v21.7h3.2v-8h4.1c1.4,0,2.4-0.5,3-1.4c0.5-0.8,0.8-1.9,0.8-3.3v-4.3c0-1.4-0.3-2.5-0.8-3.3
	C557.8,216,556.8,215.6,555.4,215.5 M555.7,219.2c0.1,0.3,0.3,0.6,0.3,1c0,0.4,0,0.9,0,1.4v1.4c0,0.5,0,1,0,1.4
	c-0.1,0.4-0.2,0.7-0.3,1.1c-0.1,0.3-0.4,0.4-0.9,0.4h-3.4v-7.3h3.4C555.2,218.7,555.5,218.8,555.7,219.2 M573.7,215.5h-11.2v3.2h3.9
	v18.5h3.2v-18.5h4.1V215.5 M595,215.5h-3.2v21.7h3.2v-12l3.5,12h3l3.5-12v12h3.2v-21.7h-3.2l-4.9,16.9L595,215.5 M619.9,216.1
	c-0.7-0.4-1.8-0.7-3.1-0.7h-5v21.7h7.3c1.4,0,2.3-0.4,2.8-1.3c0.6-0.8,0.8-1.9,0.8-3.3v-2.8c0.1-0.7,0.1-1.4,0-2.1s-0.3-1.2-0.7-1.6
	c-0.4-0.6-0.9-1-1.6-1.2c0.3,0,0.5-0.2,0.8-0.5c0.3-0.4,0.4-0.9,0.4-1.3v-2.6c0.1-1,0-1.9-0.3-2.5
	C621.1,217.1,620.7,216.5,619.9,216.1 M617.5,218.7c0.4,0,0.7,0.1,0.9,0.3c0.1,0.2,0.2,0.5,0.2,1v1.6c0,0.6,0,1.1-0.1,1.5
	c0,0.4-0.3,0.5-0.8,0.5H615v-5H617.5 M618.1,226.9c0.7,0.1,1.1,0.3,1.3,0.8c0.2,0.6,0.3,1.2,0.3,2v1.5c0,0.5,0,1-0.1,1.4
	c0,0.4-0.1,0.8-0.2,1c-0.2,0.3-0.5,0.4-0.9,0.4H615v-7.1H618.1 M588.1,215.5H577v21.7h11.1V234h-7.9v-4.8h5.9V226h-5.9v-7.3h7.9
	V215.5 M636.8,216.9c-0.6-0.9-1.6-1.4-3-1.4h-7.2v21.7h3.2v-8h0.9l4.4,8h3.5l-4.4-8c1.3-0.1,2.2-0.7,2.7-1.5
	c0.5-0.8,0.8-1.9,0.8-3.2v-4.3C637.7,218.8,637.4,217.7,636.8,216.9 M633.2,218.7c0.4,0,0.7,0.2,0.9,0.5c0.1,0.3,0.3,0.6,0.3,1
	c0,0.4,0,0.9,0,1.4v1.4c0,0.5,0,1,0,1.4c-0.1,0.4-0.2,0.7-0.3,1.1c-0.1,0.3-0.4,0.4-0.9,0.4h-3.4v-7.3H633.2 M645,215.5h-3.2v21.7
	h3.2V215.5 M657.4,216.1c-0.8-0.4-1.8-0.7-3-0.7c-0.9-0.1-1.8,0-2.6,0.3c-0.8,0.3-1.5,0.7-2,1.3c-0.6,0.6-0.9,1.5-1.1,2.6
	c-0.1,1.2,0.1,2.2,0.7,3.1c0.4,0.8,1.1,1.6,2.1,2.3l3.2,2.6c0.7,0.6,1.2,1.1,1.5,1.6c0.3,0.5,0.5,1.1,0.5,1.8c0.1,1.1,0,1.8-0.3,2.2
	c-0.3,0.4-0.9,0.7-2,0.7c-0.9,0-1.5-0.1-1.8-0.4c-0.4-0.2-0.6-0.6-0.7-1.2c-0.1-0.4-0.2-0.9-0.2-1.3c0-0.4,0-0.8,0-1.2h-3.1
	c-0.1,0.9-0.1,1.8,0,2.7c0,0.9,0.3,1.8,0.8,2.6c0.4,0.7,1.1,1.2,1.9,1.5c0.9,0.3,1.9,0.4,3.1,0.4c1.2,0.1,2.2-0.1,3.2-0.5
	c1-0.4,1.8-1.3,2.2-2.5c0.1-0.5,0.2-1.1,0.2-1.6c0.1-0.5,0.1-1.1,0-1.8c-0.1-1.1-0.4-2.1-1-3.1c-0.6-0.8-1.4-1.6-2.3-2.3l-3.8-3.1
	c-0.4-0.4-0.7-0.9-0.8-1.4c-0.2-0.5-0.1-1,0.3-1.4c0.1-0.4,0.4-0.6,0.7-0.7c0.4-0.1,0.8-0.1,1.3-0.1c0.8,0,1.4,0.2,1.8,0.5
	c0.3,0.4,0.4,0.8,0.4,1.3c0,0.5,0,1.1,0,1.8h3.4c0-0.9,0-1.7-0.1-2.4c-0.1-0.7-0.3-1.4-0.5-2C658.9,217.1,658.2,216.5,657.4,216.1
	 M473.4,237.2V234h-3.3v3.2H473.4 M484.7,227.9v-3.1H477v3.1H484.7 M503.2,234v3.2h3.3V234H503.2 M536.6,226v-7.3h7.9v-3.2h-11.1
	v21.7h11.1V234h-7.9v-4.8h5.9V226H536.6 M495.7,215.5h-3.7c-0.9,0-1.6,0.3-2.2,0.8c-0.6,0.4-0.9,0.9-1.1,1.5
	c-0.3,0.7-0.4,1.5-0.4,2.4v1.1h3.2v-0.5c0-0.6,0.1-1.1,0.3-1.4c0.1-0.4,0.4-0.7,0.9-0.7h2.5c0.7,0,1.1,0.2,1.2,0.5
	c0.1,0.3,0.1,0.8,0.1,1.4v2.4c0,0.5-0.1,0.9-0.4,1.2c-0.4,0.3-0.9,0.4-1.4,0.4h-1.3v3.2h1.3c0.5,0,1,0.2,1.4,0.5
	c0.3,0.4,0.4,0.8,0.4,1.3v2.4c0,0.7,0,1.1-0.1,1.4c-0.1,0.3-0.5,0.4-1.2,0.4h-2.5c-0.5,0-0.8-0.2-0.9-0.5c-0.2-0.4-0.3-0.8-0.3-1.4
	v-0.5h-3.2v1.1c0,0.9,0.1,1.7,0.4,2.4c0.1,0.7,0.5,1.2,1.1,1.5c0.6,0.4,1.3,0.7,2.2,0.7h3.7c1,0,1.8-0.2,2.3-0.7
	c0.7-0.4,1.1-0.9,1.3-1.5c0.2-0.7,0.3-1.5,0.3-2.4v-2.8c0-1-0.1-1.8-0.3-2.2c-0.2-0.4-0.7-0.8-1.4-1.2c0.7-0.3,1.2-0.7,1.4-1.2
	c0.2-0.5,0.3-1.2,0.3-2.1v-2.8c0-0.9-0.1-1.8-0.3-2.4c-0.2-0.7-0.7-1.2-1.3-1.5C497.4,215.7,496.7,215.5,495.7,215.5 M527.1,216.1
	c-0.8-0.4-1.8-0.7-3.1-0.7c-0.9-0.1-1.8,0-2.6,0.3c-0.8,0.3-1.5,0.7-2,1.3c-0.6,0.6-0.9,1.5-1,2.6c-0.1,1.2,0.1,2.2,0.5,3.1
	c0.4,0.8,1.2,1.6,2.2,2.3l3.2,2.6c0.7,0.6,1.2,1.1,1.5,1.6c0.3,0.5,0.5,1.1,0.5,1.8c0,1.1-0.1,1.8-0.4,2.2c-0.3,0.4-0.9,0.7-2,0.7
	c-0.9,0-1.5-0.1-1.8-0.4c-0.4-0.2-0.7-0.6-0.7-1.2c-0.1-0.4-0.1-0.9-0.1-1.3c0-0.4,0-0.8,0-1.2h-3.2c0,0.9,0,1.8,0.1,2.7
	c0,0.9,0.3,1.8,0.8,2.6c0.4,0.7,1,1.2,1.8,1.5c0.9,0.3,1.9,0.4,3.1,0.4c1.2,0.1,2.3-0.1,3.3-0.5c1-0.4,1.7-1.3,2.1-2.5
	c0.2-0.5,0.3-1.1,0.3-1.6c0.1-0.5,0.1-1.1,0-1.8c-0.1-1.1-0.4-2.1-1-3.1c-0.6-0.8-1.4-1.6-2.3-2.3l-3.8-3.1c-0.4-0.4-0.8-0.9-1-1.4
	c-0.1-0.5,0.1-1,0.4-1.4c0.1-0.4,0.4-0.6,0.8-0.7c0.3-0.1,0.7-0.1,1.2-0.1c0.9,0,1.5,0.2,1.8,0.5c0.3,0.4,0.5,0.8,0.5,1.3
	c0,0.5,0,1.1,0,1.8h3.4c0-0.9,0-1.7-0.1-2.4c-0.1-0.7-0.4-1.4-0.7-2C528.6,217.1,528,216.5,527.1,216.1 M466.4,215.5h-3.2l-2.8,2.2
	v3.6l2.8-2.1v18h3.2V215.5z"/>
</svg>
