<?xml version="1.0" encoding="utf-8"?>
<!-- Generator: Adobe Illustrator 19.2.1, SVG Export Plug-In . SVG Version: 6.00 Build 0)  -->
<svg version="1.1" id="Layer_1" xmlns="http://www.w3.org/2000/svg" xmlns:xlink="http://www.w3.org/1999/xlink" x="0px" y="0px"
	 viewBox="0 0 841.9 249.5" style="enable-background:new 0 0 841.9 249.5;" xml:space="preserve">
<style type="text/css">
	.st0{fill:url(#SVGID_1_);}
	.st1{fill:#A5D4F1;}
	.st2{fill:url(#SVGID_2_);}
	.st3{fill:url(#SVGID_3_);}
	.st4{fill:#0F763B;}
	.st5{fill:#177B3D;}
	.st6{fill:#158040;}
	.st7{fill-opacity:0.2863;}
	.st8{fill:#8D1900;}
	.st9{fill:none;stroke:#000000;stroke-linecap:square;stroke-miterlimit:3;}
	.st10{fill:#005119;}
	.st11{fill:#FFFFFF;}
	.st12{fill:#E5E0D9;}
	.st13{fill:#EAE5DE;}
	.st14{fill:#E2DED7;}
	.st15{fill:#EEEEEE;}
	.st16{fill:#D7D2CC;}
	.st17{fill:#740000;}
	.st18{fill:#E5DFD9;}
	.st19{fill:#980000;}
	.st20{fill:#8A0000;}
	.st21{fill:#A81D00;}
	.st22{fill:#E0DBD5;}
</style>
<g>
	
		<linearGradient id="SVGID_1_" gradientUnits="userSpaceOnUse" x1="420.95" y1="16.914" x2="420.95" y2="-431.4081" gradientTransform="matrix(1 0 0 -1 0 6)">
		<stop  offset="0" style="stop-color:#FFFFFF"/>
		<stop  offset="1" style="stop-color:#79C2D0"/>
	</linearGradient>
	<path class="st0" d="M0-12.2v122l459.5,36.7L0-12.2 M91.4,325.7l132.5-95.6L0,220.8v86.3L91.4,325.7 M694,249.5l147.9-114.9
		L415.7,238L694,249.5z"/>
	<path class="st1" d="M415.7,238l-191.8-7.9L91.4,325.7L694,249.5L415.7,238 M841.9,134.6L694,249.5l147.9-18.7V134.6z"/>
	
		<linearGradient id="SVGID_2_" gradientUnits="userSpaceOnUse" x1="420.95" y1="16.914" x2="420.95" y2="-431.4081" gradientTransform="matrix(1 0 0 -1 0 6)">
		<stop  offset="0" style="stop-color:#FFFFFF"/>
		<stop  offset="1" style="stop-color:#005BAA"/>
	</linearGradient>
	<path class="st2" d="M650.8,61.1l191.1-85.3H0L650.8,61.1z"/>
	
		<linearGradient id="SVGID_3_" gradientUnits="userSpaceOnUse" x1="420.95" y1="16.914" x2="420.95" y2="-431.4081" gradientTransform="matrix(1 0 0 -1 0 6)">
		<stop  offset="0" style="stop-color:#FFFFFF"/>
		<stop  offset="1" style="stop-color:#42A0C5"/>
	</linearGradient>
	<path class="st3" d="M841.9,134.6V-24.2L650.8,61.1L0-24.2v11.9l459.5,158.7L0,109.7v111.1l223.9,9.2l191.8,7.9L841.9,134.6
		 M841.9,230.8L694,249.5L91.4,325.7L0,307.1v143.5h223.5V441h398.6v9.6h219.8L841.9,230.8L841.9,230.8z"/>
</g>
<g>
	<g id="Layer7_0_FILL">
		<path class="st4" d="M-1,159.8l-1.8,54.4l142-31.4L-1,159.8 M295.2,159.4l-156.1,23.2l579.5,21.7l-123.9-34.9L295.2,159.4
			 M-4.8,268.6l-1.8,34.2H259L-4.8,268.6 M352.4,458.6L172.9,430L-6.7,401.5V475h233.8L352.4,458.6 M617.3,345.6l225-69.5
			l-583.5,26.7L617.3,345.6 M172.8,349.8l-63.9,34.9L173,430L172.8,349.8z"/>
		<path class="st5" d="M-2.9,214.1l-2,54.5l144-86L-2.9,214.1 M139.1,182.7l119.8,120.2l459.7-98.4L139.1,182.7 M139.1,182.7
			l38.8-23.2h-178l-0.9,0.3L139.1,182.7 M352.4,458.6h0.5c0.3-0.1,0.5-0.1,0.8-0.2l320.7-41.9L172.9,430L352.4,458.6 M842.4,276.1
			l-168,140.4L588,475h254.4V276.1 M848.6,142.8l-72.1,16.6l-57.8,44.9l123.7,71.8L848.6,142.8 M108.9,384.7l63.9-34.9l0.1,80.2
			l444.4-84.4l-358.4-42.8H-6.7v98.7L172.9,430L108.9,384.7z"/>
		<path class="st6" d="M258.9,302.8L139.1,182.7l-144,86L258.9,302.8 M177.9,159.4l-38.8,23.2l156.1-23.2H177.9 M352.9,458.6h-0.5
			L227.1,475H588l86.4-58.4l-320.7,41.9C353.5,458.5,353.2,458.5,352.9,458.6 M842.4,276.1l-123.7-71.8L259,302.7L842.4,276.1
			 M842.4,276.1l-225,69.5L172.9,430l501.5-13.5L842.4,276.1 M718.6,204.4l57.8-44.9l-181.7,10L718.6,204.4z"/>
	</g>
</g>
<g transform="matrix( 1, 0, 0, 1, 0,0) ">
	<g>
		<g id="Layer6_0_FILL">
			<path class="st7" d="M278.5,275.8l-32.2-16.1L209,248.9l-10.9-0.7l6.3-19.1l-2-10.2l-11.5-26.1l-10.2,5l-19.2,0.1l-12.5,1.6h-0.1
				l-8.3-5.8l-4.7,12.4l4.8,12.1l4.9,20.8l-2,6l1.4,0.1l-32.3,0.6l-55.6,15.7l-13.6,19.1l-2.7,19.2l26.8,27.6l48.6,13.8l67.3,10.6
				L248,336l29.1-28.5L278.5,275.8 M72.2,275.1L72.2,275.1L72,275l0.2-0.1V275.1L72.2,275.1l0.1-0.1l0,0
				C72.3,275.1,72.3,275.1,72.2,275.1 M72.7,275l-0.2,0.1l0,0L72.7,275L72.7,275 M165.1,265.3l-0.2,0.1l0.1-0.5L165.1,265.3
				 M191.7,261v0.2h-0.3L191.7,261 M203.5,311.4l-0.2,0.1c-0.5-1.5-0.5-1.8-0.2-1C203.2,310.6,203.3,310.9,203.5,311.4z"/>
		</g>
	</g>
</g>
<g>
	<g transform="matrix( 1, 0, 0, 1, 0,0) ">
		<g>
			<g id="Layer4_0_FILL_1_">
				<path class="st8" d="M318.8,58.5c-2.3,0.7-4.3,2-5.8,3.8s-2.5,4.4-2.8,7.6c-0.3,3.4,0.2,6.3,1.5,8.7c1.3,2.5,3.4,4.9,6.4,7.2
					l9.1,7.2c1.9,1.5,3.3,3,4.3,4.6c0.9,1.6,1.5,3.4,1.6,5.4c0.2,3-0.2,5.1-1.1,6.4s-2.8,1.9-5.6,1.9c-2.5,0-4.3-0.4-5.3-1.2
					c-1-0.8-1.6-2-1.7-3.8c-0.1-1.3-0.2-2.5-0.2-3.6c0-1.2,0-2.4,0-3.7H310c-0.1,2.6-0.1,5.2,0.1,7.9c0.1,2.7,0.8,5.2,2,7.6
					c1.3,2.3,3.2,3.9,5.5,4.7c2.4,0.9,5.3,1.3,8.8,1.3c3.5,0.2,6.6-0.4,9.5-1.7c2.9-1.3,4.9-3.7,6.2-7.1c0.4-1.7,0.7-3.4,0.8-5
					c0.1-1.6,0.1-3.3-0.1-5v0.1c-0.3-3.4-1.3-6.4-3-8.9s-3.9-4.9-6.5-6.9L322,77c-1.3-1.1-2.2-2.4-2.5-3.9s0-3,0.8-4.4
					c0.5-0.8,1.3-1.3,2.3-1.6c1-0.3,2.3-0.4,3.8-0.5c2.3,0,4,0.5,4.9,1.5s1.4,2.2,1.5,3.8c0.1,1.6,0.1,3.2,0.1,5h9.8
					c0.1-2.4-0.1-4.6-0.3-6.7c-0.3-2.1-0.9-4-1.7-5.6c-1.3-2.5-3.2-4.3-5.6-5.4c-2.5-1.1-5.3-1.7-8.6-1.6
					C323.7,57.4,321.1,57.7,318.8,58.5 M413.3,57.6H404v45.3c0,1.4-0.1,2.7-0.2,4s-0.4,2.4-0.9,3.2c-0.5,0.8-1.4,1.3-2.6,1.3h-4.4
					c-1.5-0.1-2.5-0.9-2.9-2.3c-0.5-1.5-0.7-3.1-0.7-5V101h-9.1v6.1c-0.1,3.9,0.7,7.1,2.3,9.6s4.5,3.8,8.5,3.9h8
					c4.1-0.1,7-1.4,8.6-3.9s2.4-5.7,2.3-9.6V57.6 M427.7,57.6h-9.2v62.9h9.2V57.6 M380.3,66.7v-9.1h-32v62.9h32v-9.1h-22.8V97.1
					h16.9V88h-16.9V66.7H380.3 M376,52.2v-9.1h-21.7v9.1L376,52.2 M479.4,57.6h-9.1v62.9h9.1V80.8l14.3,39.7h9.1V57.6h-9.1v39.7
					L479.4,57.6 M459.2,88h-16.9V66.7H465v-9.1h-32v62.9h32v-9.1h-22.8V97.1h16.9V88 M517.8,73.1c-0.3-1.5,0-3,0.8-4.4
					c0.5-0.8,1.3-1.3,2.3-1.6c1-0.3,2.3-0.4,3.8-0.5c2.3,0,4,0.5,4.9,1.5s1.4,2.2,1.5,3.8c0.1,1.6,0.1,3.2,0,5h9.8
					c0.1-2.4,0-4.6-0.3-6.7s-0.9-4-1.7-5.6c-1.3-2.5-3.2-4.3-5.6-5.4c-2.5-1.1-5.3-1.7-8.6-1.6c-2.8-0.1-5.3,0.2-7.7,0.9
					c-2.3,0.7-4.3,2-5.8,3.8s-2.4,4.4-2.8,7.6c-0.3,3.4,0.2,6.3,1.5,8.7c1.3,2.5,3.4,4.9,6.4,7.2l9.1,7.2c1.9,1.5,3.3,3,4.2,4.6
					s1.5,3.4,1.6,5.4c0.2,3-0.2,5.1-1,6.4c-1,1.3-2.9,1.9-5.7,1.9c-2.5,0-4.3-0.4-5.3-1.2c-1-0.8-1.6-2-1.7-3.8
					c-0.1-1.3-0.2-2.5-0.2-3.6c0-1.2,0-2.4,0-3.7h-9.1c-0.1,2.6-0.1,5.2,0.1,7.9c0.1,2.7,0.8,5.2,2,7.6c1.3,2.3,3.2,3.9,5.5,4.7
					c2.4,0.9,5.3,1.3,8.8,1.3c3.5,0.2,6.6-0.4,9.5-1.7c2.8-1.3,4.9-3.7,6.2-7.1c0.4-1.7,0.7-3.4,0.8-5s0.1-3.3-0.1-5v0.1
					c-0.3-3.4-1.3-6.4-3-8.9s-3.9-4.9-6.5-6.9l-11.2-9C518.9,75.9,518.1,74.6,517.8,73.1z"/>
			</g>
		</g>
	</g>
	<g transform="matrix( 1, 0, 0, 1, 0,0) ">
		<g>
			<g id="Layer3_0_FILL_1_">
				<path d="M426.3,127.3h-4.2c-0.6,0-1,0.2-1.5,0.6c-0.4,0.4-0.6,0.9-0.6,1.5v11.8c0,0.6,0.2,1.1,0.6,1.5s0.9,0.6,1.5,0.6h4.2
					c0.6,0,1-0.2,1.4-0.6s0.6-0.9,0.6-1.5v-11.8c0-0.6-0.2-1-0.6-1.5C427.3,127.5,426.9,127.3,426.3,127.3 M425.3,129.6
					c0.2,0,0.4,0.1,0.5,0.2c0.1,0.1,0.2,0.3,0.2,0.5v9.9c0,0.2-0.1,0.3-0.2,0.5c-0.1,0.1-0.3,0.2-0.5,0.2h-2.2
					c-0.2,0-0.4-0.1-0.5-0.2c-0.1-0.1-0.2-0.3-0.2-0.5v-9.9c0-0.2,0.1-0.3,0.2-0.5c0.1-0.1,0.3-0.2,0.5-0.2H425.3 M411,129
					c-0.2,0.5-0.2,1.1-0.2,1.7v0.9h2.3v-0.3c0-0.4,0.1-0.8,0.2-1.1s0.4-0.5,0.8-0.5h1.8c0.4,0,0.7,0.1,0.8,0.3
					c0.1,0.2,0.2,0.6,0.1,1.1v0.7c0,0.4,0,0.7-0.1,1s-0.2,0.5-0.4,0.8c-0.2,0.3-0.4,0.5-0.7,0.9l-3.7,4.7c-0.3,0.3-0.4,0.5-0.6,0.8
					s-0.3,0.5-0.4,0.8s-0.1,0.7-0.1,1.2v1.3h8.2V141h-5.6c0-0.1,0-0.1,0-0.2c0-0.1,0.1-0.2,0.1-0.3l4.7-6.1c0.2-0.3,0.4-0.6,0.5-1
					c0.1-0.3,0.2-0.7,0.2-1.1v-1.5c0-0.6-0.1-1.2-0.3-1.7s-0.5-0.9-0.9-1.2s-0.9-0.5-1.6-0.5h-2.8c-0.7,0-1.3,0.2-1.7,0.5
					C411.5,128,411.2,128.5,411,129 M433.8,127.3h-2.3l-2.1,1.6v2.6l2.1-1.6v13.3h2.3V127.3 M443,127.3h-8.1v2.3h5.4l-4.7,13.6h2.4
					l5-14.2V127.3z"/>
			</g>
		</g>
		<g>
			<path id="Layer3_0_1_STROKES" class="st9" d="M450.1,133.6h92.7 M309.3,134.4h92.6"/>
		</g>
	</g>
</g>
<g transform="matrix( 1, 0, 0, 1, 0,0) ">
	<g>
		<g id="Layer1_0_FILL_2_">
			<path class="st10" d="M77.7,129.5l-5.8,1.6l-5,3.6l-1.4,3.1v3.6L73,145l5.2,0.1l0.1,1.6l-1.4,4.9l-2.5,7v2.5l5.5,1.5l4.7,0.1
				l2.9-1.5l1.6-8l0.1-3.6l-1.7-5.4l1.9-0.2l5.7-2.6l3.9-3.3l-2.3-5l-4.6-3.3l-7.1-1.3L77.7,129.5 M86.3,141.1L86.3,141.1
				L86.3,141.1L86.3,141.1 M69.1,138.7L69.1,138.7L69.1,138.7L69.1,138.7 M87.4,132.7L87.4,132.7L87.4,132.7L87.4,132.7z"/>
			<path class="st11" d="M147.8,186.2l2.1-24.3l-12.6,8.1L147.8,186.2 M169.9,191.7l10.2-8.6L169.9,165V191.7 M195.6,196.8
				l-25.6-5.2l12.8,14.5L195.6,196.8 M195.8,208.4l-13-2.3l-12.8,9.4l13.8-3.8h0.1v-0.1v0.1L195.8,208.4 M162.8,200.8l-14.9-14.6
				v29.7L162.8,200.8 M169.9,191.7l-7.2,9.1l7.2,14.8V191.7 M147.8,186.2l22.1,5.4l-8.1-16.7L147.8,186.2 M180.1,183l15.5,13.8
				l-8.9-23.6L180.1,183 M126.6,171.3l14.7,25.2l6.6-10.3L126.6,171.3 M138.8,151.7l-12.5,2.9l23.6,7.3L138.8,151.7 M130.1,141.8
				l8.6,9.9L150,146L130.1,141.8 M137.4,170l-11.1-15.5l0.3,16.7L137.4,170 M130.1,141.8l11.5-5.5L134,129L130.1,141.8 M173.8,156.8
				l-3.9,8.2l16.7,8.3L173.8,156.8 M171.2,141l-6.5-8.4v15.9L171.2,141 M150,146l3.3-15.2l-11.6,5.4L150,146 M171.2,141l6.5,7.5v-15
				L171.2,141 M173.8,156.8l3.9-8.2h-13L173.8,156.8 M169.9,164.9l-20-3l11.8,13.1L169.9,164.9 M150,146v15.9l9.3-7.2L150,146
				 M159.3,154.7L170,165l-5.2-16.3L159.3,154.7 M164.7,148.6l-5.7-8.9l-9,6.4L164.7,148.6 M156.8,131.2l-3.6-0.4l5.7,8.8l5.7-7
				L156.8,131.2z"/>
			<path class="st12" d="M126.6,171.3l21.2,14.9L137.4,170L126.6,171.3z"/>
			<path class="st13" d="M147.8,215.9v-29.7l-6.6,10.3L147.8,215.9 M169.9,215.6l12.8-9.4l-12.8-14.5V215.6 M182.7,206.2l13,2.3
				l-0.2-11.6L182.7,206.2 M147.8,215.9l22.1-0.3l-7.2-14.8L147.8,215.9 M161.8,175l8.1,16.7V165L161.8,175 M169.9,191.7l-22.1-5.4
				l14.9,14.6L169.9,191.7 M195.6,196.8L180.1,183l-10.2,8.6L195.6,196.8 M150,161.9V146l-11.2,5.7L150,161.9 M169.9,164.9
				l-10.7-10.3l-9.3,7.2L169.9,164.9z"/>
			<path class="st14" d="M147.8,186.2l14-11.2L150,161.9L147.8,186.2 M180.1,183l6.5-9.8l-16.7-8.3L180.1,183 M126.3,154.6
				l11.1,15.5L150,162L126.3,154.6 M159.3,154.7l5.4-6.1L150,146L159.3,154.7z"/>
			<path class="st15" d="M141.3,196.5l-7.3,12.4l13.9,7.1L141.3,196.5z"/>
			<path class="st16" d="M141.3,196.5l-14.7-25.2l7.4,37.5L141.3,196.5z"/>
			<path class="st8" d="M80.8,100l18,15.7l1.5-15.7H80.8 M125.4,128l-4.2-24.3l-22.4,11.9L125.4,128 M121.2,103.8l18.5,11V96
				L121.2,103.8 M134.3,75.4l-17.3,4l4.2,24.3L134.3,75.4 M134.9,75.9c0.1,0.5,0,0.3-0.5-0.8l5.3,20.9h21.1l-26-20.6
				C134.8,75.7,134.9,75.9,134.9,75.9 M134.4,75.2L134.4,75.2l0.2-0.3L134.4,75.2 M100.3,86.3l-8.9-9.6L80.8,100L100.3,86.3
				 M100.3,86.3V100l20.9,3.8L100.3,86.3 M179.8,113l22.4,1.2l-4.9-14.9L179.8,113 M159.1,111.1l1.7-15.1L140,114.9L159.1,111.1
				 M221.5,104.2l1.3,19.2l14.3-6.8L221.5,104.2 M222,103.3l-0.6,0.8l-0.3-0.3l-0.3-0.2v0.2h0.1v0.2l-18.8,10.3v18.9l19.3-28.9v-0.1
				L222,103.3 M153.3,130.8l3.6,0.4L140,114.9L125.4,128l8.6,1L153.3,130.8 M159.1,111.1l-2.2,20.1l22.9-18.2L159.1,111.1
				 M179.8,113l-2,20.5l24.4-0.4L179.8,113 M181.5,95.7L160.8,96l19,17L181.5,95.7 M190.9,79.6l6.4,19.7l7.9-19.7L190.9,79.6
				 M181.5,95.7l15.8,3.6l-24.2-25.8L181.5,95.7 M152.2,71.3l8.6,24.7l12.3-22.5l0,0L152.2,71.3 M237.2,99.4l-6.4-14.3l-8.7,18.1
				L237.2,99.4z"/>
			<path class="st17" d="M98.8,115.7l22.4-11.9l-20.9-3.8L98.8,115.7 M139.7,114.7l-18.5-11l4.2,24.3l14.6-13.1L160.8,96h-21.1
				V114.7 M134.6,74.9L134.6,74.9l-0.2,0.3L134.6,74.9 M100.3,100V86.3L80.8,100H100.3 M202.2,133.1v-18.9l-22.4-1.2L202.2,133.1
				 M202.2,133.1l20.7-9.7l-1.3-19.2L202.2,133.1 M220.7,103.5l0.1,0.1l0.3,0.2l-0.6-0.5h-0.4H220L220.7,103.5
				C220.6,103.5,220.6,103.5,220.7,103.5L220.7,103.5 M220.9,103.6l-0.1,0.1h-0.1h-0.1l-0.2,0.1v-0.1h0.1v-0.1h0.1l-1-0.4l-22.3-3.8
				l4.9,14.9L221,104v-0.2h-0.1L220.9,103.6 M222,103.3l-0.5,0.8v0.1l15.7,12.4V99.4L222,103.3 M221.5,104.1l0.6-0.8L221.5,104.1
				L221.5,104.1 M159.1,111.1l20.7,1.9l-19-17L159.1,111.1 M156.8,131.2l2.2-20.1l-19.1,3.8L156.8,131.2 M177.8,133.5l2-20.5
				l-22.9,18.2l7.8,1.4h2.1c1.6,0.1,4.6,0.4,9.1,0.7L177.8,133.5 M180.1,60.6l10.8,19h14.3L180.1,60.6 M181.5,95.7l-8.4-22.2
				L160.8,96L181.5,95.7 M197.3,99.3l-15.8-3.6l-1.7,17.4L197.3,99.3 M230.8,85.1l-12.4,4.4l2.3,13.5l0.6,0.7l0.8-0.5L230.8,85.1
				 M207.4,68.2l-2.2,11.4l25.6,5.5L207.4,68.2 M218.4,89.6l-13.2-9.9l-7.9,19.7L218.4,89.6z"/>
			<path class="st18" d="M134,129l7.7,7.3l11.6-5.4L134,129 M138.8,151.7l-8.6-9.9l-3.8,12.8L138.8,151.7 M141.7,136.3l-11.5,5.5
				L150,146L141.7,136.3 M177.7,148.6l-6.5-7.5l-6.5,7.5H177.7 M177.7,148.6l-3.9,8.2l12.8,16.5L177.7,148.6 M150,146l9-6.4
				l-5.7-8.8L150,146 M158.9,139.7l5.7,8.9v-15.9L158.9,139.7 M177.7,133.6l-1.9-0.2c-4.4-0.3-7.4-0.5-9.1-0.7h-2.1l6.5,8.4
				L177.7,133.6z"/>
			<path class="st19" d="M129.7,58l4.9,16.8l11.8-20L129.7,58 M139.7,96l-5.3-20.9L113,61.2l4,18.2l17.3-4l-13.1,28.3L139.7,96
				 M134.6,74.8L134.6,74.8l-0.2,0.3l0,0l0.3,0.2l-0.1-0.3V74.8 M134.8,75.4L134.8,75.4l-0.3-0.2l0,0c0.5,1,0.7,1.3,0.5,0.8
				C134.9,75.9,134.8,75.7,134.8,75.4 M173.1,73.5l24.2,25.8l-6.4-19.7L173.1,73.5z"/>
			<path class="st20" d="M117,79.4l-16.8,6.8l20.9,17.5L117,79.4 M134.4,75.2L134.4,75.2L134.4,75.2L134.4,75.2 M91.3,76.7l8.9,9.6
				L113,61.2L91.3,76.7 M173,73.5L173,73.5l7.1-12.9l-13-2.2l5.8,15l-26.4-18.5l5.7,16.5L173,73.5 M160.8,96l-8.6-24.7l-17.6,3.8
				l0.1,0.3l0,0l0,0L160.8,96z"/>
			<path class="st21" d="M100.3,86.3l16.8-6.8l-4-18.2L100.3,86.3 M134.4,75.2l0.2-0.3L129.7,58L113,61.2L134.4,75.2 M134.7,75.4
				L134.7,75.4l-0.3-0.2L134.7,75.4 M221.5,104.1l0.6-0.8l-0.8,0.5l-0.6-0.7l-2.3-13.5l-21.1,9.7l22.3,3.8l1,0.4h-0.1l0.1,0.1h-0.1
				h-0.1v0.1l0.2-0.1h0.1h0.1l-0.1-0.1h-0.1l-0.6-0.3h0.1h0.4l0.6,0.5L221.5,104.1L221.5,104.1 M152.2,71.3l-5.7-16.5l-11.8,20V75
				L152.2,71.3 M173.1,73.5l17.8,6.1l-10.8-19L173.1,73.5 M167.1,58.4l-20.6-3.5l26.4,18.5L167.1,58.4 M205.2,79.6l2.2-11.4
				l-27.3-7.6L205.2,79.6 M205.2,79.6l13.2,9.9l12.4-4.4L205.2,79.6z"/>
			<path class="st22" d="M164.7,148.6l5.2,16.3l3.9-8.2L164.7,148.6z"/>
		</g>
	</g>
</g>
<g transform="matrix( 1, 0, 0, 1, 0,0) ">
	<g>
		<g id="Layer6_0_FILL_1_">
			<path class="st7" d="M563.2,274.1l1.4,31.7l29.1,28.6l64.5,15.8l67.3-10.5l48.6-13.7l26.9-27.6l-2.7-19.2L784.8,260l-55.5-15.7
				l-32.3-0.7l1.4-0.1l-2-6l4.9-20.8l4.8-12.1l-4.6-12.4l-8.3,5.8h-0.1l-12.5-1.6l-19.2-0.2l-10.2-5l-11.6,26.1l-2,10.2l6.3,19.1
				l-10.9,0.7L595.5,258L563.2,274.1 M769.6,273.7c-0.1,0-0.1,0-0.1-0.1l0,0L769.6,273.7L769.6,273.7v-0.1l0.2,0.1l-0.1,0.1
				L769.6,273.7 M769.1,273.5L769.1,273.5h0.2l0,0H769.1 M676.7,263.8l0.1-0.4l0.1,0.5L676.7,263.8 M650.2,259.4l0.3,0.2h-0.3V259.4
				 M638.6,308.9c0.3-0.9,0.3-0.5-0.2,1l-0.2-0.1C638.4,309.2,638.5,309,638.6,308.9z"/>
		</g>
	</g>
</g>
<g transform="matrix( 1, 0, 0, 1, 0,0) ">
	<g>
		<g id="Layer1_0_FILL_1_">
			<path class="st10" d="M771,131.4l-7.1-1.8l-7.2,0.7l-4.9,2.9l-2.7,4.8l3.6,3.6l5.4,3.1l1.8,0.4l-2.1,5.3l-0.2,3.6l0.9,8.1
				l2.8,1.8l4.7,0.3l5.6-1.1l0.2-2.5l-1.9-7.2l-1-5l0.2-1.6l5.2,0.3l7.7-2.9l0.3-3.6l-1.1-3.2l-4.7-4L771,131.4 M761.5,142.3
				L761.5,142.3L761.5,142.3L761.5,142.3 M778.9,141.3L778.9,141.3L778.9,141.3L778.9,141.3 M761.1,133.9L761.1,133.9L761.1,133.9
				L761.1,133.9z"/>
			<path class="st11" d="M696.5,182.1l11.7-15.3l-11.8-9.1L696.5,182.1 M674,185.7l2.2-26.6l-11.7,17.2L674,185.7 M648,188.7
				l12,10.4l14-13.4L648,188.7 M646.9,200.3l11.6,4.3v-0.1v0.1h0.1l13.4,5l-12-10.4L646.9,200.3 M680.4,195.4l13.6,16.3l2.5-29.6
				L680.4,195.4 M674,185.7l-2,23.8l8.4-14.2L674,185.7 M696.5,182.1l-13-12.3l-9.5,15.9L696.5,182.1 M664.6,176.3l-5.7-10.3
				L648,188.7L664.6,176.3 M718.9,169l-22.4,13.1l5.7,10.8L718.9,169 M708.4,148.5l-12,9.2l24.2-5.3L708.4,148.5 M717.8,139.3
				l-20.1,2.6l10.7,6.6L717.8,139.3 M708.2,166.8l10.7,2.2l1.7-16.6L708.2,166.8 M717.8,139.3l-2.7-13l-8.3,6.6L717.8,139.3
				 M673,150.6l-14.1,15.3l17.3-6.9L673,150.6 M676.9,135.1l5.9,8.1l1.3-15.8L676.9,135.1 M697.7,141.9l9.1-9l-11.1-6.4L697.7,141.9
				 M676.9,135.1l-5.9-8l-1.2,15L676.9,135.1 M673,150.6l9.8-7.4l-13-1.1L673,150.6 M676.2,159l7.3,10.7l12.9-12.1L676.2,159
				 M697.7,141.9l-10,7.8l8.7,8L697.7,141.9 M687.7,149.7l-4.9-6.5l-6.6,15.9L687.7,149.7 M682.8,143.2l14.9-1.3l-8.4-7.1
				L682.8,143.2 M684.1,127.3l5.1,7.4l6.4-8.3l-3.6,0.1L684.1,127.3z"/>
			<path class="st12" d="M718.9,169l-22.4,13.1l11.7-15.3L718.9,169z"/>
			<path class="st13" d="M694,211.7l8.2-18.8l-5.7-10.8L694,211.7 M672,209.5l2-23.8l-14,13.4L672,209.5 M660,199.1l-12-10.4
				l-1.2,11.6L660,199.1 M694,211.7l-13.6-16.3l-8.4,14.2L694,211.7 M683.5,169.8l-7.3-10.7l-2.2,26.6L683.5,169.8 M674,185.7
				l6.4,9.7l16.1-13.3L674,185.7 M648,188.7l26-3l-9.4-9.4L648,188.7 M696.4,157.7l12-9.2l-10.7-6.6L696.4,157.7 M696.4,157.7
				l-8.7-8l-11.5,9.3L696.4,157.7z"/>
			<path class="st14" d="M696.5,182.1l-0.1-24.4l-12.9,12.1L696.5,182.1 M664.6,176.3l11.7-17.2L659,166L664.6,176.3 M720.5,152.3
				l-24.2,5.3l11.8,9.1L720.5,152.3 M697.7,141.9l-14.9,1.3l4.9,6.5L697.7,141.9z"/>
			<path class="st15" d="M702.2,192.9l6.2,12.9l-14.4,5.9L702.2,192.9z"/>
			<path class="st16" d="M702.2,192.9l16.7-23.9l-10.5,36.8L702.2,192.9z"/>
			<path class="st8" d="M770.5,101.8l-19.4-1.6l0.2,15.8L770.5,101.8 M723.7,126l27.5-10.1l-21.4-13.8L723.7,126 M729.9,102.1
				l-17.8-9.3l-1.6,18.7L729.9,102.1 M719.1,72.8l10.7,29.3l6.2-23.9L719.1,72.8 M718.5,73.3c0,0,0.1-0.2,0.2-0.5l-27.6,18.4l21,1.8
				l7-20.3C718.5,73.5,718.3,73.8,718.5,73.3 M719.1,72.5l-0.2-0.3L719.1,72.5L719.1,72.5 M752.2,86.5l18.3,15.3l-8.6-24.1
				L752.2,86.5 M752.2,86.5l-22.3,15.7l21.2-2L752.2,86.5 M670.7,106.5l-16.3-15.1l-6.1,14.4L670.7,106.5 M691.5,106.3l18.8,5.3
				l-19.2-20.5L691.5,106.3 M629.9,94.2l-16.6,11l13.7,8L629.9,94.2 M629.4,93.3l0.4,0.9v0.1l16.9,30.4l1.6-18.8l-17.8-11.8v-0.2
				h0.1v-0.2l-0.3,0.2l-0.4,0.3L629.4,93.3 M695.7,126.5l19.4-0.2l8.7-0.2l-13.5-14.3l-18.2,14.9L695.7,126.5 M691.5,106.3
				l-20.8,0.2l21.3,20L691.5,106.3 M670.7,106.5l-24,18.1L671,127L670.7,106.5 M670.5,89.1l0.2,17.5L691,91.2L670.5,89.1
				 M662.5,72.3l-14.3-1.2l6.2,20.3L662.5,72.3 M670.5,89.1l10.2-21.4l-26.3,23.7L670.5,89.1 M701.7,67.3l-20.9,0.4l0,0l10.4,23.4
				L701.7,67.3 M629.4,93.3l-7.2-18.8l-7.6,13.7L629.4,93.3z"/>
			<path class="st17" d="M751.2,115.9l-0.2-15.8l-21.2,2L751.2,115.9 M710.5,111.5l1.6-18.7l-21-1.8l19.2,20.5l13.5,14.3L730,102
				L710.5,111.5 M718.9,72.3l0.2,0.3L718.9,72.3L718.9,72.3 M751,100.1l19.4,1.6l-18.3-15.3L751,100.1 M646.7,124.7l24-18.1
				l-22.4-0.7L646.7,124.7 M646.7,124.7l-16.9-30.4l-2.9,19L646.7,124.7 M630.7,93.6L630.7,93.6c0.1,0.1,0.1,0.1,0.2,0.1l0.6-0.3
				h-0.1H631l-0.7,0.5l0.3-0.2L630.7,93.6 M630.6,93.7v0.2h-0.1v0.2l17.8,11.8l6.1-14.4l-22.5,2l-1,0.4h0.1V94h0.1v0.1l-0.2-0.1
				h-0.1h-0.1L630.6,93.7 M629.4,93.3l-14.8-5.1l-1.4,17.1l16.6-11v-0.1L629.4,93.3 M629.9,94.2L629.9,94.2l-0.5-0.9L629.9,94.2
				 M691.5,106.3l-0.4-15.2l-20.3,15.4L691.5,106.3 M692.1,126.5l18.2-14.9l-18.8-5.3L692.1,126.5 M671,127.1h2
				c4.4,0.1,7.5,0.1,9.1,0.1l2.1,0.2l7.9-0.8l-21.3-20L671,127.1 M674.8,54.2l-26.6,16.9l14.3,1.2L674.8,54.2 M670.5,89.1l20.6,2.1
				l-10.4-23.4L670.5,89.1 M654.4,91.4l16.3,15.1L670.5,89L654.4,91.4 M622.2,74.5l7.2,18.8l0.8,0.6l0.6-0.6l3.4-13.3L622.2,74.5
				 M646.9,59.6l-24.7,14.9l26-3.4L646.9,59.6 M654.4,91.4l-6.2-20.3l-14,8.8L654.4,91.4z"/>
			<path class="st18" d="M715,126.2l-19.4,0.2l11.1,6.4L715,126.2 M708.4,148.5l12.2,3.9l-2.7-13.1L708.4,148.5 M706.8,132.9l-9.1,9
				l20.1-2.6L706.8,132.9 M669.8,142.1l13,1.1l-5.9-8.1L669.8,142.1 M669.8,142.1l-10.9,23.8l14.1-15.3L669.8,142.1 M697.7,141.9
				l-2-15.4l-6.4,8.3L697.7,141.9 M689.3,134.8l-5.1-7.4l-1.3,15.8L689.3,134.8 M676.9,135.1l7.2-7.8l-2.1-0.2c-1.6,0-4.6,0-9.1-0.1
				l-1.9,0.1L676.9,135.1z"/>
			<path class="st19" d="M725.2,55.9l-16.4-4.5l10.1,20.9L725.2,55.9 M712.1,92.9l17.8,9.3l-10.7-29.3l16.9,5.4l5.5-17.8l-22.5,12.1
				L712.1,92.9 M718.9,72.2l-0.1,0.2l-0.1,0.3l0.3-0.1l0,0L718.9,72.2L718.9,72.2 M718.7,72.8c-0.1,0.3-0.2,0.5-0.2,0.5
				c-0.2,0.5,0,0.3,0.6-0.7l0,0L718.7,72.8L718.7,72.8 M662.5,72.3l-8,19.1l26.3-23.7L662.5,72.3z"/>
			<path class="st20" d="M736,78.2l-6.2,23.9l22.3-15.7L736,78.2 M719,72.5L719,72.5L719,72.5L719,72.5 M761.9,77.7l-20.4-17.2
				l10.6,26L761.9,77.7 M680.7,67.7l20.9-0.4l7.1-15.9l-27.8,16.3l7-14.5l-13.1,1.1L680.7,67.7L680.7,67.7 M718.7,72.8L718.7,72.8
				L718.7,72.8l0.1-0.3l-17.2-5.2L691,91.2L718.7,72.8z"/>
			<path class="st21" d="M752.2,86.5l-10.6-26L736,78.2L752.2,86.5 M719.1,72.5l22.5-12.1l-16.4-4.6l-6.3,16.4L719.1,72.5
				 M718.7,72.8l0.3-0.2L718.7,72.8L718.7,72.8 M629.9,94.1L629.9,94.1l0.4-0.2l0.7-0.5h0.4h0.1l-0.6,0.3h-0.1l-0.1,0.1h0.1h0.1
				l0.2,0.1v-0.1H631h-0.1l0.1-0.1h-0.1l1-0.4l22.5-2l-20.2-11.5l-3.4,13.3l-0.6,0.6l-0.8-0.6L629.9,94.1 M701.7,67.3l17.2,5.2
				l0.1-0.2l-10.1-20.9L701.7,67.3 M680.7,67.7l-5.9-13.4l-12.3,18.1L680.7,67.7 M687.9,53.1l-7,14.5l27.8-16.3L687.9,53.1
				 M648.2,71.1l26.6-16.9L647,59.5L648.2,71.1 M622.2,74.5l12,5.5l14-8.8L622.2,74.5z"/>
			<path class="st22" d="M682.8,143.2l-6.6,15.9l-3.2-8.5L682.8,143.2z"/>
		</g>
	</g>
</g>
<g transform="matrix( 1, 0, 0, 1, 0,0) ">
	<g>
		<g id="Layer2_0_FILL">
			<path class="st11" d="M421.1,221.2H416v15.3h2.2v-5.6h2.9c1,0,1.7-0.3,2.1-1c0.4-0.6,0.5-1.3,0.5-2.3v-3c0-1-0.2-1.8-0.5-2.3
				C422.8,221.6,422.1,221.3,421.1,221.2 M421.3,223.9c0.1,0.2,0.2,0.4,0.2,0.7s0,0.6,0,1v1c0,0.4,0,0.7,0,1
				c-0.1,0.3-0.1,0.5-0.2,0.8c-0.1,0.2-0.3,0.3-0.6,0.3h-2.4v-5.2h2.4C421,223.5,421.2,223.6,421.3,223.9 M434.1,221.2h-7.9v2.2h2.8
				v13.1h2.2v-13.1h2.9V221.2 M449.1,221.2h-2.2v15.3h2.2V228l2.5,8.5h2.1l2.5-8.5v8.5h2.2v-15.3h-2.2l-3.5,11.9L449.1,221.2
				 M466.7,221.7c-0.5-0.3-1.2-0.5-2.2-0.5H461v15.3h5.2c1,0,1.6-0.3,2-0.9c0.4-0.6,0.6-1.3,0.5-2.3v-2c0.1-0.5,0.1-1,0-1.5
				s-0.2-0.9-0.5-1.2c-0.3-0.4-0.6-0.7-1.2-0.9c0.2,0,0.4-0.1,0.5-0.4c0.2-0.3,0.3-0.6,0.3-0.9v-1.9c0.1-0.7,0-1.3-0.2-1.8
				C467.5,222.3,467.2,221.9,466.7,221.7 M465,223.5c0.3,0,0.5,0.1,0.6,0.2c0.1,0.2,0.2,0.4,0.2,0.7v1.2c0,0.4,0,0.8-0.1,1.1
				c0,0.3-0.2,0.4-0.5,0.4h-1.9v-3.6L465,223.5 M465.4,229.3c0.5,0.1,0.8,0.2,0.9,0.5c0.2,0.4,0.2,0.9,0.2,1.4v1.1
				c0,0.4,0,0.7-0.1,1c0,0.3-0.1,0.5-0.2,0.7c-0.2,0.2-0.4,0.3-0.6,0.3h-2.5v-5H465.4 M444.2,221.2h-7.8v15.3h7.8v-2.2h-5.6v-3.4
				h4.2v-2.2h-4.2v-5.2h5.6V221.2 M478.6,222.2c-0.4-0.6-1.1-1-2.1-1h-5.1v15.3h2.2v-5.6h0.6l3.1,5.6h2.5l-3.1-5.6
				c0.9-0.1,1.6-0.5,1.9-1.1c0.4-0.6,0.5-1.3,0.5-2.2v-3C479.2,223.6,479,222.8,478.6,222.2 M476,223.5c0.3,0,0.5,0.1,0.6,0.4
				c0.1,0.2,0.2,0.4,0.2,0.7s0,0.6,0,1v1c0,0.4,0,0.7,0,1c-0.1,0.3-0.1,0.5-0.2,0.8c-0.1,0.2-0.3,0.3-0.6,0.3h-2.4v-5.2H476
				 M484.4,221.2h-2.2v15.3h2.2V221.2 M493.1,221.7c-0.6-0.3-1.3-0.5-2.1-0.5c-0.7-0.1-1.3,0-1.9,0.2s-1,0.5-1.4,0.9s-0.7,1-0.8,1.9
				c-0.1,0.8,0.1,1.5,0.5,2.2c0.3,0.6,0.8,1.1,1.5,1.6l2.2,1.9c0.5,0.4,0.9,0.8,1.1,1.2s0.3,0.8,0.4,1.2c0.1,0.8,0,1.3-0.2,1.5
				c-0.2,0.3-0.7,0.5-1.4,0.5c-0.6,0-1-0.1-1.2-0.3c-0.3-0.2-0.4-0.4-0.5-0.9c-0.1-0.3-0.2-0.6-0.2-0.9c0-0.3,0-0.6,0-0.9H487
				c-0.1,0.6-0.1,1.3,0,1.9c0,0.6,0.2,1.2,0.5,1.9c0.3,0.5,0.7,0.9,1.3,1.1c0.6,0.2,1.3,0.3,2.2,0.3c0.8,0.1,1.6-0.1,2.2-0.4
				c0.7-0.3,1.2-0.9,1.5-1.8c0.1-0.4,0.2-0.7,0.2-1.2c0.1-0.4,0.1-0.8,0-1.2c-0.1-0.8-0.3-1.5-0.7-2.2c-0.4-0.6-1-1.1-1.6-1.6
				L490,226c-0.3-0.3-0.5-0.6-0.5-1c-0.2-0.4-0.1-0.7,0.2-1c0.1-0.3,0.3-0.4,0.5-0.5c0.3-0.1,0.6-0.1,0.9-0.1c0.6,0,1,0.1,1.2,0.4
				c0.2,0.3,0.3,0.6,0.3,0.9s0,0.8,0,1.2h2.4c0-0.6,0-1.2-0.1-1.7s-0.2-1-0.4-1.4C494.2,222.4,493.7,221.9,493.1,221.7 M363.2,236.5
				v-2.2h-2.3v2.2H363.2 M371.2,230v-2.2h-5.4v2.2H371.2 M384.3,234.3v2.2h2.3v-2.2H384.3 M407.8,228.6v-5.2h5.6v-2.2h-7.8v15.3h7.8
				v-2.2h-5.6v-3.4h4.2v-2.2h-4.2 M378.9,221.2h-2.6c-0.6,0-1.1,0.2-1.5,0.5s-0.7,0.6-0.8,1.1c-0.2,0.5-0.3,1-0.3,1.7v0.8h2.2v-0.4
				c0-0.4,0.1-0.7,0.2-1s0.3-0.5,0.6-0.5h1.8c0.5,0,0.7,0.1,0.9,0.4c0.1,0.2,0.1,0.5,0.1,1v1.7c0,0.4-0.1,0.6-0.3,0.9
				c-0.3,0.2-0.6,0.3-1,0.3h-0.9v2.2h0.9c0.4,0,0.7,0.1,1,0.4c0.2,0.3,0.3,0.6,0.3,0.9v1.7c0,0.5,0,0.8-0.1,1s-0.4,0.3-0.9,0.3h-1.8
				c-0.4,0-0.6-0.1-0.6-0.4c-0.2-0.3-0.2-0.6-0.2-1v-0.4h-2.2v0.8c0,0.6,0.1,1.2,0.3,1.7c0.1,0.5,0.4,0.8,0.8,1.1s0.9,0.5,1.5,0.5
				h2.6c0.7,0,1.3-0.2,1.6-0.5c0.5-0.3,0.8-0.6,0.9-1.1c0.2-0.5,0.2-1.1,0.2-1.7v-2c0-0.7-0.1-1.2-0.2-1.5c-0.2-0.3-0.5-0.6-1-0.9
				c0.5-0.2,0.9-0.5,1-0.9c0.2-0.4,0.2-0.9,0.2-1.5v-2c0-0.7-0.1-1.2-0.2-1.7c-0.2-0.5-0.5-0.8-0.9-1.1
				C380.2,221.4,379.7,221.2,378.9,221.2 M401.1,221.7c-0.6-0.3-1.3-0.5-2.2-0.5c-0.6-0.1-1.2,0-1.9,0.2c-0.6,0.2-1,0.5-1.4,0.9
				s-0.6,1-0.7,1.9c-0.1,0.8,0.1,1.5,0.4,2.2c0.3,0.6,0.8,1.1,1.5,1.6l2.2,1.9c0.5,0.4,0.8,0.8,1.1,1.2c0.2,0.4,0.3,0.8,0.4,1.2
				c0,0.8-0.1,1.3-0.3,1.5c-0.2,0.3-0.7,0.5-1.4,0.5c-0.6,0-1-0.1-1.2-0.3c-0.3-0.2-0.5-0.4-0.5-0.9c-0.1-0.3-0.1-0.6-0.1-0.9
				c0-0.3,0-0.6,0-0.9h-2.2c0,0.6,0,1.3,0.1,1.9c0,0.6,0.2,1.2,0.5,1.9c0.3,0.5,0.7,0.9,1.2,1.1c0.6,0.2,1.3,0.3,2.2,0.3
				c0.9,0.1,1.6-0.1,2.3-0.4c0.7-0.3,1.2-0.9,1.5-1.8c0.2-0.4,0.2-0.7,0.2-1.2c0.1-0.4,0.1-0.8,0-1.2c-0.1-0.8-0.3-1.5-0.7-2.2
				c-0.4-0.6-1-1.1-1.6-1.6L398,226c-0.3-0.3-0.5-0.6-0.7-1c-0.1-0.4,0.1-0.7,0.3-1c0.1-0.3,0.3-0.4,0.5-0.5s0.5-0.1,0.9-0.1
				c0.6,0,1,0.1,1.2,0.4c0.2,0.3,0.3,0.6,0.4,0.9c0,0.4,0,0.8,0,1.2h2.4c0-0.6,0-1.2-0.1-1.7s-0.3-1-0.5-1.4
				C402.2,222.4,401.7,221.9,401.1,221.7 M358.3,221.2H356l-2,1.5v2.6l2-1.5v12.7h2.2L358.3,221.2L358.3,221.2z"/>
		</g>
	</g>
</g>
<g transform="matrix( 1, 0, 0, 1, 0,0) ">
	<g>
		<g id="Layer0_0_FILL">
			<path class="st11" d="M470.5,182.2c-0.5,0-0.9,0.1-1.3,0.2c-0.4,0.1-0.7,0.4-0.9,0.8c-0.5-0.1-1-0.2-1.6-0.2
				c-0.5-0.1-0.9-0.1-1.4-0.1c-0.4,0-0.7-0.1-1.1-0.1s-0.7-0.1-1.1-0.3s-0.8-0.4-1.3-0.4s-0.9,0-1.4,0c-0.8,0-1.5,0.1-2.2,0.4
				c-0.6,0.3-1.1,0.9-1.6,1.6c-0.3,0.7-0.7,1.4-1,2.1c-0.3,0.7-0.6,1.4-0.8,2.2c-0.6,2.2-1.1,4.4-1.4,6.7s-0.4,4.5-0.5,6.8
				c0,0.6,0.1,1.1,0.3,1.4c0.3,0.4,0.7,0.7,1.3,0.8c0.9,0.3,1.8,0.4,2.8,0.4c0.9,0,1.9-0.1,2.9-0.3c0.7-0.2,1.4-0.5,1.9-0.9
				c0.6-0.4,1.2-0.9,1.7-1.4c0.1-0.2,0.3-0.3,0.5-0.4c0.2-0.2,0.4-0.4,0.6-0.6c0,0.4,0,0.8,0,1.1s0,0.7,0,1c0,0.7,0.1,1.1,0.4,1.5
				c0.2,0.3,0.7,0.6,1.3,0.7c1.7,0.4,2.9,0.6,3.5,0.6c0.7,0.1,1-0.1,1.1-0.4c0.1-0.3,0.1-0.7,0-1.4s-0.1-1.5,0-2.6s0.2-2.2,0.2-3.4
				c0-1.1,0.1-2.3,0.3-3.4c0.3-1.3,0.5-2.6,0.8-3.8c0.2-1.2,0.5-2.5,0.7-3.8c0.1-0.5,0.2-1,0.2-1.6c0.1-0.5,0.1-1,0.2-1.5
				c0-0.2,0-0.4-0.1-0.6c-0.1-0.2-0.2-0.4-0.4-0.5c-0.4-0.2-0.7-0.3-1.1-0.4c-0.4-0.1-0.7-0.1-1.1,0c-0.1,0.4-0.1,0.9-0.2,1.3
				c-0.1,0.4-0.1,0.8-0.1,1.2c-0.1,0-0.1,0-0.1,0C470.5,183.8,470.5,183,470.5,182.2 M461.3,187.9c0.3,0,0.7-0.1,1-0.1
				c0.3-0.1,0.6-0.1,0.9-0.2c0.4,0.9,0.5,2,0.2,3.3c-0.2,1.3-0.7,2.7-1.4,4.1c-0.7,1.3-1.5,2.5-2.5,3.3c0.1-1.8,0.3-3.6,0.6-5.4
				C460.4,191.3,460.8,189.6,461.3,187.9 M456.9,191.3c0.1,0,0.1,0,0.1,0c-0.3,1.7-0.6,3.5-0.7,5.3s-0.2,3.6-0.2,5.4
				c-0.3-0.1-0.5-0.3-0.5-0.5s0-0.3,0-0.5c0-0.7,0.1-1.4,0.1-2.1c0-0.8,0.1-1.5,0.1-2.2c0.1-0.9,0.3-1.8,0.4-2.7
				C456.5,193.2,456.6,192.2,456.9,191.3C456.8,191.3,456.9,191.3,456.9,191.3 M459.1,193.6L459.1,193.6c0.1,0,0.1,0,0.1,0
				c0,0.2,0,0.3,0,0.4c0,0.1,0,0.2,0,0.3c0-0.1,0-0.2,0-0.3C459.1,193.9,459.1,193.8,459.1,193.6 M473,184.8L473,184.8
				c-0.1-0.3-0.1-0.5-0.1-0.7s0-0.4,0-0.6h0.1l0,0c0,0.2,0,0.5,0,0.7S473,184.6,473,184.8 M466.7,187.2c0.3,0.4,0.4,0.8,0.4,1.1
				c-0.1,0.4-0.2,0.7-0.4,1.1C466.7,188.7,466.7,187.9,466.7,187.2 M468.1,197.4c0,1,0,1.9,0,2.8c0,0.9,0,1.8,0,2.8
				c-0.2-0.4-0.3-0.9-0.4-1.6c-0.1-0.7-0.1-1.4,0-2.1C467.7,198.5,467.9,197.9,468.1,197.4 M470.4,199.5c0-1,0.1-2,0.2-3
				c0,0.9,0,1.8,0,2.7s0,1.8,0,2.8C470.4,201.3,470.3,200.5,470.4,199.5 M458.8,195.9c0.1,0,0.1-0.1,0.1-0.1
				c-0.1-0.2-0.1-0.4-0.1-0.6c0-0.2,0.1-0.4,0.3-0.6c0,0.2,0,0.3,0,0.5s-0.1,0.5-0.1,0.7c0,0.6-0.1,1.2-0.1,1.7
				c0,0.6-0.1,1.2-0.1,1.8c-0.1,0-0.1,0-0.2,0c0-0.2,0-0.4,0-0.6c0-0.2,0-0.4,0-0.6c0.1-0.6,0.1-1.2,0.2-1.9
				C458.8,196.1,458.8,196,458.8,195.9 M483.6,176c-0.2,0-0.5,0.1-0.8,0.1c-0.2,0.1-0.3,0.2-0.3,0.3c-0.1,0.1-0.1,0.3-0.1,0.5
				s0,0.5,0,0.7c0,0.3,0,0.5,0,0.8c0.2,0.2,0.5,0.3,0.8,0.4c0.3,0,0.6,0,0.9,0c0.1,0,0.2,0,0.3-0.1c0.1-0.1,0.2-0.1,0.2-0.2
				c0-0.4,0-0.9,0-1.3c0-0.5-0.1-0.9-0.2-1.4C484.2,176,483.9,176,483.6,176 M487,182.7c0-0.2-0.1-0.4-0.3-0.4
				c-0.2-0.1-0.5-0.2-1-0.3c-0.5-0.2-0.9-0.2-1.2-0.1c-0.3,0.1-0.6,0.4-0.9,0.8c0-0.1,0-0.3,0-0.4c0-0.1,0-0.3,0-0.4
				c-0.2,0-0.4,0.1-0.5,0.1c-0.2,0-0.3,0-0.4,0c-0.4,0.1-0.7,0.2-0.9,0.3c-0.2,0.2-0.4,0.5-0.5,0.8c-0.3,0.7-0.5,1.4-0.8,2.2
				s-0.6,1.5-0.8,2.3c-0.5,1.5-0.9,3-1.2,4.5c-0.4,1.5-0.8,3.1-1.2,4.6c-0.2,1-0.5,1.9-0.8,2.9c-0.3,0.9-0.5,1.9-0.7,2.8
				c-0.2,0.7-0.1,1.2,0.1,1.5c0.2,0.4,0.6,0.7,1.2,0.9c0.2,0.1,0.3,0.1,0.5,0.1c0.2,0.1,0.3,0.1,0.5,0.2c0.7,0.1,1.3,0.1,2,0.2
				c0.7,0.1,1.3,0.2,1.9,0.2c1.1,0,2.2-0.1,3.2-0.3s2.1-0.6,3-1.1c0.5-0.2,0.9-0.5,1.3-0.8s0.7-0.8,0.9-1.3c0.1-0.1,0.1-0.2,0.1-0.3
				c0.1-0.1,0.1-0.2,0-0.3c0-0.1,0-0.1-0.1-0.2c0-0.1-0.1-0.1-0.1-0.1c-0.1,0-0.1,0-0.2,0c-0.1,0.1-0.1,0.1-0.1,0.2h-0.1l0,0
				c0-0.1-0.1-0.2-0.1-0.2c0-0.1,0-0.2,0-0.3c-0.5-0.1-0.9-0.2-1.4-0.2c-0.4,0-0.8,0.2-1.2,0.7h-0.1c0-0.1,0.1-0.2,0.1-0.3
				s0-0.2,0-0.3c-0.1,0-0.1,0-0.1,0H487c-0.4,0-0.8,0.1-1.2,0.3c-0.4,0.1-0.7,0.4-1.1,0.7c-0.3,0.3-0.5,0.6-0.8,0.8
				s-0.7,0.4-1.1,0.4c-0.1-0.4-0.1-0.9-0.1-1.4s0.1-1,0.2-1.6c0.2-0.9,0.5-1.8,0.7-2.8c0.2-0.9,0.5-1.8,0.7-2.8
				c0.5-1.8,0.9-3.5,1.4-5.3c0.5-1.7,0.9-3.5,1.4-5.2C486.9,183.2,487,182.9,487,182.7 M479,202.7c-0.3-0.3-0.4-0.6-0.4-0.9
				c0-0.3,0.1-0.8,0.4-1.4c0,0.4,0,0.7,0,1.1S479,202.3,479,202.7 M481.7,201.4c0,0.3,0,0.5,0,0.8c-0.2-0.3-0.2-0.5-0.2-0.7
				s0.1-0.5,0.2-1C481.7,200.9,481.7,201.2,481.7,201.4 M487.6,176.4c-0.4-0.2-0.8-0.3-1.2-0.4c-0.4-0.1-0.8-0.1-1.3,0
				c0,0.5,0,1,0,1.5s0,1,0,1.5c0.4,0,0.8,0,1.2,0c0.4-0.1,0.7-0.2,1.1-0.3c0.3-0.2,0.5-0.6,0.6-1.1C488,177,487.9,176.7,487.6,176.4
				 M514.7,186.7c0,0.6,0.2,1.1,0.5,1.7c0.2,0.4,0.5,0.8,0.9,1.1s0.8,0.6,1.2,0.9c0.3,0.2,0.6,0.4,0.9,0.5c0.3,0.2,0.7,0.4,1,0.6
				c0.4,0.2,0.7,0.5,1.1,0.7c0.4,0.3,0.7,0.6,1,1c0.7,0.9,1.1,1.9,1.5,2.9c0.3,1,0.3,2.2,0.2,3.3c-0.1,0.7-0.3,1.4-0.6,2
				c-0.4,0.6-0.8,1.1-1.4,1.5c-0.1,0.1-0.1,0.1-0.2,0.1c-0.1,0-0.2,0-0.2,0c-0.4-0.2-0.7-0.3-1-0.5s-0.6-0.3-0.8-0.5
				c0-0.2,0.1-0.3,0.1-0.4c0-0.1,0-0.2,0-0.3c-0.1-0.2-0.2-0.2-0.3-0.2s-0.2,0.1-0.4,0.2c0.1-0.2,0.1-0.3,0-0.4
				c-0.1-0.1-0.1-0.1-0.2-0.1c-0.3-0.1-0.5-0.1-0.8-0.1s-0.5,0-0.8,0h-0.1c-0.1,0-0.2-0.1-0.3-0.1s-0.2-0.1-0.2-0.1
				c-0.5,0-0.9,0.1-1.3,0.1c-0.4,0.1-0.8,0.1-1.2,0.2c-0.1,0-0.2,0-0.3,0s-0.2,0.1-0.3,0.1c-0.3,0.1-0.4,0.3-0.5,0.5s0,0.4,0.1,0.7
				c0.1,0.1,0.1,0.2,0.2,0.3c0.1,0.1,0.2,0.2,0.3,0.3c0.2,0.2,0.3,0.3,0.5,0.5c0.2,0.1,0.4,0.2,0.5,0.3c1.3,0.7,2.6,1.2,3.9,1.6
				c1.3,0.4,2.7,0.7,4.1,0.8c0.7,0,1.4,0,2.1,0c0.7,0,1.4-0.1,2.1-0.2c1.3-0.3,2.4-1,3.3-2.1s1.4-2.2,1.6-3.6c0-0.8-0.1-1.6-0.2-2.4
				c-0.2-0.7-0.4-1.4-0.7-2.1c-0.4-0.9-0.8-1.6-1.3-2.2c-0.5-0.6-1.2-1.1-1.9-1.6c-0.5-0.3-1-0.6-1.6-0.9c-0.5-0.3-1-0.6-1.5-0.9
				c-0.3-0.2-0.6-0.4-0.9-0.6c-0.3-0.3-0.6-0.5-0.9-0.8c-0.3-0.3-0.5-0.7-0.5-1.1c-0.1-0.4,0-0.9,0.1-1.4c0.3-0.8,0.8-1.5,1.5-2
				s1.4-1,2.3-1.3c0,0.3,0,0.5,0,0.7s0.1,0.5,0.1,0.7c0,0.1,0.1,0.3,0.1,0.4c0,0.1,0.1,0.2,0.2,0.2c0.2,0.1,0.4,0.2,0.6,0.3
				c0.3,0.1,0.4,0.1,0.5,0c0.2-0.1,0.3-0.2,0.4-0.5c0.1-0.2,0.1-0.5,0.2-0.7c0-0.1,0-0.1,0-0.1c0-0.1,0-0.1,0-0.2c0-0.1,0-0.1,0-0.2
				c0-0.1,0-0.1,0-0.2h0.1h0.1c0,0.1,0,0.2,0,0.2c0,0.1,0,0.1,0,0.2c0,0.1,0,0.1,0,0.2c0,0.1,0,0.1,0,0.2c0.1,0.2,0.1,0.4,0,0.6
				c-0.1,0.2-0.1,0.4-0.2,0.5l0,0c0.5,0.1,0.9,0.1,1.3,0.1c0.4-0.1,0.8-0.2,1.1-0.5c0.7-0.5,1-1.1,0.9-1.6c-0.1-0.6-0.5-1-1.2-1.5
				c-0.7-0.3-1.3-0.6-2-0.8c-0.7-0.1-1.4-0.2-2.1-0.3c-1.2-0.2-2.4-0.1-3.5,0.1c-1.1,0.2-2.2,0.6-3.2,1.2c-0.7,0.4-1.4,0.8-2,1.3
				s-1.1,1.1-1.5,1.9C514.9,185.5,514.7,186.1,514.7,186.7 M518,186.4c0,0.2,0,0.4,0,0.6h-0.1l0,0c-0.2-0.2-0.2-0.4-0.2-0.6
				c0-0.2,0.2-0.5,0.4-0.7C518,185.9,518,186.1,518,186.4 M520.6,186.5c0,0.2-0.1,0.4-0.1,0.7c-0.1-0.2-0.2-0.5-0.1-0.7
				c0.1-0.2,0.2-0.4,0.3-0.6C520.7,186.1,520.7,186.3,520.6,186.5 M526.4,198.1c0.3,0.5,0.4,1,0.3,1.7c-0.1,0.6-0.3,1.1-0.7,1.5
				c0.1-0.5,0.1-1,0.2-1.6C526.3,199.1,526.4,198.6,526.4,198.1 M529.7,200c0.1-0.6,0.1-1.1,0.1-1.7c0.2,0.6,0.2,1.2,0.2,1.7
				c0,0.6-0.2,1.1-0.6,1.6C529.5,201.1,529.6,200.5,529.7,200 M496.9,166l0.2,0.1C497.1,166.1,497.1,166,496.9,166L496.9,166
				 M502.4,161.5c-0.3-0.1-0.7-0.1-1-0.1c-0.4,0-0.7,0.1-1,0.3l0,0h-0.1c-0.8,0-1.3,0.1-1.7,0.4c-0.4,0.3-0.6,0.8-0.8,1.5
				c-0.1,0.3-0.1,0.5-0.2,0.7c0,0.3-0.1,0.5-0.1,0.8c0,0.2-0.1,0.3-0.1,0.5s-0.1,0.3-0.1,0.5c0,0,0,0.3,0,0.9
				c-0.1,0.6-0.1,1.4-0.2,2.3c-0.1,1-0.3,2-0.5,3.1c-0.1,0.7-0.2,1.8-0.4,3.1c-0.2,1.3-0.4,2.8-0.6,4.5c-0.2,1.6-0.4,3.2-0.6,4.7
				s-0.3,2.7-0.4,3.6c-0.1,1-0.2,1.4-0.2,1.5l-1.1,13.6c0,0.3,0,0.6,0,0.8c0,0.3,0,0.5,0,0.7s0,0.4,0.1,0.5s0.2,0.2,0.4,0.2
				c0.4,0.1,0.7,0.2,1.1,0.2s0.7,0,1.1-0.1c0,0,0.1-0.1,0.2-0.1h0.1c0.4,0.1,0.8,0.1,1.2,0c0.3-0.1,0.7-0.3,1-0.4
				c0.7-0.2,1.1-0.5,1.4-1s0.4-1,0.4-1.7c0-0.5,0-1,0-1.6s0.1-1.1,0.1-1.6s0.1-1,0.1-1.5c0-0.6,0-1.1,0-1.6l0.5,1l0.1-0.2
				c0.6,0.7,1.1,1.4,1.6,2.1c0.5,0.7,1,1.3,1.5,2.1c0.4,0.6,0.8,1,1.4,1.3c0.5,0.3,1.1,0.5,1.8,0.7l1,0.1l-0.2-0.4h0.1l0.3,0.2
				c0.1,0.1,0.2,0.1,0.3,0.1c0.1,0.1,0.1,0.1,0.2,0.1c0.2,0,0.4,0,0.6,0c0.2-0.1,0.4-0.1,0.6-0.1s0.4-0.1,0.4-0.2
				c0.1-0.1,0.1-0.2,0-0.4c0-0.1,0-0.1,0-0.2c0-0.1,0-0.1,0-0.2h0.1c0,0.1,0,0.3,0,0.4c0,0.1,0,0.3,0,0.4c0.2,0,0.4-0.1,0.5-0.2
				c0.1-0.1,0.2-0.3,0.3-0.4c0-0.2,0-0.4-0.1-0.5c-0.1-0.2-0.2-0.3-0.3-0.4l-3.8-4.2c-0.7-0.7-1.3-1.5-1.8-2.4s-1-1.8-1.4-2.7
				c-0.1-0.2-0.1-0.3-0.1-0.4c0-0.1,0.1-0.3,0.1-0.4c1.3-2.6,2.8-5.2,4.4-7.7c0.4-0.6,0.7-1.1,1-1.6c0.3-0.6,0.6-1.1,0.9-1.7
				c0.1-0.2,0.1-0.3,0.1-0.4c-0.1-0.1-0.2-0.2-0.3-0.2l-0.3,0.4v-0.5c-0.4-0.1-0.7-0.1-1-0.2c-0.3,0-0.6,0.1-0.9,0.4l0.2-0.3
				c-0.5,0-0.9,0.1-1.3,0.2c-0.4,0.1-0.7,0.4-1,0.7l-5.4,8.2c0-0.2,0-0.4,0-0.6c0-0.2,0.1-0.4,0.1-0.6c0-0.7,0-1.8,0.1-3.5
				c0.1-1.6,0.3-3.6,0.5-5.7c0.2-2.1,0.5-4.3,0.7-6.5s0.4-4.1,0.6-5.7c0.2-1.6,0.2-2.8,0.2-3.4c0-0.2,0-0.4,0-0.5
				C502.9,161.7,502.7,161.6,502.4,161.5 M497.7,181.5v1.1h-0.1h-0.1l0.1-1.1H497.7L497.7,181.5 M497.4,186.1l-0.1,1.1h-0.1
				c0-0.2,0-0.3,0-0.5C497.2,186.4,497.2,186.3,497.4,186.1L497.4,186.1L497.4,186.1 M497.1,187.9
				C497.2,187.9,497.2,187.9,497.1,187.9c0.1,0,0.2,0.1,0.2,0.1c0,0.1-0.1,0.3-0.1,0.5s0,0.3,0,0.5h-0.1V187.9 M496.3,199.5h0.2
				l-0.2,3h-0.1L496.3,199.5 M499.2,200.7L499.2,200.7l0.1,0.6v0.1L499.2,200.7 M496,204.9l0.1-0.5l0,0h0.1c0,0.1-0.1,0.1-0.1,0.2
				c0,0.1,0,0.2,0,0.2H496C496,204.9,496,204.9,496,204.9 M376.1,205.3c-0.1,0.3-0.2,0.5-0.2,0.5l-1.8,4c0,0.1-0.1,0.2-0.1,0.3
				s0,0.1,0,0.2c0,0.1,0,0.1,0,0.2c0,0,0,0.1,0.1,0.1c0.1,0.1,0.2,0.2,0.3,0.2c0.1,0.1,0.2,0.1,0.3,0.1l0,0l0,0
				c0.1,0.1,0.3,0.1,0.4,0.1s0.2,0,0.3,0c0.2,0,0.4,0,0.5-0.1s0.2-0.3,0.3-0.5c0.1-0.2,0.1-0.3,0.1-0.5c0.1-0.2,0.2-0.3,0.2-0.4
				c0.2-0.6,0.5-1.2,0.7-1.8s0.5-1.2,0.7-1.9c0.3-0.7,0.5-1.3,0.8-1.9c0.2-0.6,0.5-1.2,0.8-1.8s0.6-1.2,0.9-1.9
				c0.1-0.3,0.2-0.5,0.3-0.8c0.1-0.3,0.2-0.5,0.3-0.8c0-0.1,0-0.1,0-0.1c0-0.1,0-0.1-0.1-0.1c-0.1-0.1-0.2-0.1-0.3-0.1
				c-0.1-0.1-0.2-0.1-0.3,0l0,0c-0.2-0.1-0.4-0.1-0.5,0c-0.1,0-0.3,0.1-0.4,0.3c-0.1,0.1-0.1,0.1-0.1,0.2c0,0.1-0.1,0.1-0.1,0.2
				c-0.1,0.1-0.2,0.3-0.4,0.6c-0.2,0.3-0.3,0.7-0.5,1.1c-0.2,0.5-0.4,0.9-0.6,1.3c-0.1,0.3-0.3,0.6-0.5,1s-0.4,0.9-0.6,1.3
				C376.4,204.6,376.2,205,376.1,205.3 M375.1,209.9l0.3-0.8l0,0L375.1,209.9L375.1,209.9 M376.2,209.7v0.2l0,0V209.7 M374.8,210.6
				L374.8,210.6L374.8,210.6L374.8,210.6L374.8,210.6C374.9,210.5,374.9,210.5,374.8,210.6L374.8,210.6 M377.8,203.6L377.8,203.6
				L377.8,203.6l-0.1,0.3l0,0L377.8,203.6 M377.1,205.3L377.1,205.3L377.1,205.3c0-0.1,0-0.1,0-0.2l0.1-0.1l0,0L377.1,205.3
				 M376.9,205.5L376.9,205.5L376.9,205.5c0,0.1,0,0.1,0,0.2v0.1h-0.1L376.9,205.5 M389,180.6c-0.2-0.5-0.5-0.9-0.9-1.2
				c-0.3-0.3-0.8-0.5-1.3-0.6c-1.4-0.3-2.7-0.4-4-0.3c-1.3,0.1-2.6,0.6-3.8,1.5c-0.1,0.1-0.2,0.2-0.3,0.2c-0.2,0-0.3,0-0.4-0.1
				c-0.3-0.1-0.6-0.1-0.9-0.1s-0.6,0-0.8,0c-0.1,0.5-0.2,0.9-0.2,1.3c-0.1,0.4-0.1,0.8-0.2,1.2H376c0-0.4,0-0.8,0-1.2s0-0.8,0-1.2
				c-0.8-0.1-1.4,0-1.7,0.2c-0.4,0.2-0.7,0.7-0.9,1.4c-1.1,3-1.9,6.1-2.5,9.3c-0.6,3.1-1.1,6.3-1.6,9.5c-0.1,0.7-0.2,1.4-0.2,2.2
				c-0.1,0.7-0.1,1.4-0.2,2.1c0,0.2,0,0.5,0,0.7s0.2,0.4,0.4,0.5c0.3,0.1,0.6,0.2,0.9,0.2c0.3,0.1,0.7,0.1,1,0.2
				c0.1,0,0.1-0.1,0.2-0.1c0.1-0.1,0.2-0.2,0.2-0.2c0.2,0.1,0.4,0.2,0.5,0.2c0.1,0.1,0.3,0.1,0.4,0.1c0.2,0,0.4,0,0.6-0.1
				c0.2,0,0.4,0,0.6,0c0.5-0.1,1-0.3,1.3-0.6s0.6-0.8,0.7-1.4c0.3-1.5,0.5-3,0.8-4.5s0.6-3,0.8-4.5c0.1-0.6,0.2-1.2,0.3-1.8
				c0.1-0.7,0.3-1.3,0.5-1.9c0.5-1.4,1.1-2.9,1.8-4.2c0.7-1.4,1.5-2.7,2.3-4c0.2-0.3,0.4-0.6,0.6-0.9c0.2-0.3,0.5-0.6,0.7-0.9
				c0.1,0.2,0.2,0.4,0.2,0.6c0.1,0.2,0.1,0.4,0.1,0.5c0.1,0.5,0.2,1,0.2,1.5c0.1,0.5,0.2,1,0.2,1.6c0.2,1.7,0.2,3.3,0.1,5
				c-0.1,1.6-0.5,3.2-1.1,4.8c-0.5,1.3-0.9,2.6-1.3,3.8c-0.1,0.7-0.3,1.4-0.4,2.1c-0.1,0.7-0.2,1.4-0.3,2.1c0,0.2,0,0.4,0,0.5
				c0.1,0.2,0.2,0.3,0.4,0.4c0.4,0.1,0.7,0.2,1.1,0.3c0.3,0.1,0.7,0.1,1.1,0c0.1-0.4,0.2-0.8,0.3-1.2c0.1-0.4,0.2-0.8,0.2-1.2
				c0.1,0,0.1,0,0.1,0h0.1c0,0.4,0,0.9,0,1.3c0,0.4,0,0.8,0,1.3c0.2,0,0.4,0,0.6,0s0.4,0,0.5,0c0.4,0,0.7-0.1,0.9-0.2
				c0.3-0.1,0.4-0.4,0.5-0.8l0,0h0.1c0,0.1,0,0.2,0,0.3s0,0.2,0,0.3c0.2,0,0.4-0.1,0.5-0.3s0.2-0.3,0.2-0.5c0.1-0.3,0.2-0.7,0.3-1
				c0.1-0.4,0.2-0.7,0.3-1c0.9-2.6,1.4-5.3,1.7-7.9c0.3-2.7,0.2-5.4-0.2-8.2c-0.1-0.8-0.3-1.7-0.5-2.5
				C389.8,182.1,389.5,181.3,389,180.6 M389.7,184.9c0,0.2,0,0.3,0,0.4c0,0.1,0,0.2,0,0.3c0-0.1,0-0.3,0-0.3
				C389.6,185.2,389.6,185.1,389.7,184.9L389.7,184.9 M389.7,185.8L389.7,185.8l0.1,0.1c0.1,0.1,0.1,0.1,0.1,0.2
				c0.2,1.2,0.2,2.5,0.2,3.8s0,2.5-0.2,3.8c0,0.1,0,0.2-0.1,0.2c-0.1,0.1-0.1,0.1-0.1,0.1c0.2-1.3,0.3-2.7,0.2-4.1
				C389.9,188.6,389.8,187.2,389.7,185.8 M387.2,188.9c0-0.9,0-1.7-0.1-2.7c-0.1-0.9-0.1-1.8-0.1-2.7c0.5,1.8,0.7,3.6,0.7,5.4
				c0,1.8-0.2,3.6-0.7,5.4c0-0.9,0.1-1.8,0.1-2.8C387.1,190.7,387.2,189.8,387.2,188.9 M389.7,194.3c0,0.1,0,0.2,0,0.3
				c0,0.2,0,0.3,0,0.4h-0.1c0-0.1,0-0.3,0-0.4C389.7,194.5,389.7,194.4,389.7,194.3 M398.5,182.7c-0.4,0.1-0.7,0.1-1,0.1
				s-0.6,0.1-0.8,0.1c-0.2,0-0.3,0.1-0.4,0.2c-0.1,0.1-0.2,0.3-0.3,0.5c-0.3,0.7-0.6,1.4-0.8,2.2c-0.2,0.8-0.3,1.5-0.4,2.4
				c-0.2,1.6-0.3,3.1-0.5,4.7c-0.2,1.6-0.3,3.2-0.5,4.8c-0.1,0.4-0.1,0.8-0.1,1.2c0,0.5,0,0.9,0,1.3c0,0.9,0.3,1.6,0.7,2.2
				c0.4,0.7,1.1,1.1,2,1.4c0.6,0.2,1.2,0.3,1.9,0.4c0.7,0.2,1.3,0.2,2,0.2c0.5,0,1-0.1,1.6-0.2c0.6-0.1,1.1-0.2,1.7-0.3
				c0.3,0.4,0.7,0.6,1.1,0.8s0.9,0.3,1.3,0.3c0-0.1,0-0.3,0-0.4c0-0.1,0-0.2,0-0.3s0.1-0.3,0.1-0.4c0-0.1,0-0.3,0-0.4
				c0-0.1,0-0.3,0-0.4c0-0.2,0-0.3,0-0.4c0-0.1,0-0.2,0-0.3c0.1-0.1,0.1-0.1,0.1-0.2h0.1c0,0.4,0,0.9,0,1.3c0,0.5,0,0.9,0,1.3
				c0,0.1,0,0.2,0,0.2c0,0.1,0,0.1,0.2,0.2c0.4,0.1,0.8,0.1,1.3,0c0.4-0.1,0.8-0.2,1.2-0.3c0.3-0.1,0.5-0.3,0.6-0.6s0.1-0.6,0-1
				c-0.1-0.6-0.2-1.2-0.3-1.9c-0.1-0.6,0-1.2,0-1.8c0.2-1.2,0.5-2.4,0.7-3.6c0.2-1.2,0.5-2.4,0.7-3.6c0.3-1.2,0.5-2.4,0.6-3.6
				c0.1-1.2,0.2-2.5,0.2-3.7c0-0.1,0-0.3,0-0.4c0-0.1-0.1-0.2-0.2-0.3c-0.3-0.1-0.5-0.2-0.8-0.3s-0.5-0.1-0.8-0.2
				c-0.1,0-0.2,0-0.2,0c-0.1,0.1-0.1,0.2-0.1,0.3c-0.1,0.2-0.1,0.4-0.1,0.6c-0.1,0.2-0.1,0.4-0.1,0.6c-0.1,0.8-0.1,1.5-0.2,2.3
				s-0.3,1.6-0.4,2.4c-0.3,1.6-0.7,3.3-1.1,4.9c-0.4,1.6-0.7,3.3-0.9,4.9c0,0.1,0,0.1,0,0.1s-0.1,0.1-0.1,0.2c0-0.1-0.1-0.2-0.1-0.2
				v-0.1c0-0.2,0-0.4,0-0.6c0-0.2,0-0.4,0.1-0.6c0.2-1,0.5-2.1,0.7-3.2c0.2-1.1,0.4-2.2,0.6-3.2c0.2-1.4,0.5-2.8,0.7-4.2
				s0.5-2.8,0.7-4.2c-0.2,0-0.4,0.1-0.6,0.1s-0.4,0-0.6,0c-0.3,0-0.5,0.1-0.6,0.3c-0.2,0.2-0.3,0.3-0.3,0.5
				c-0.1,0.3-0.1,0.5-0.2,0.8s-0.1,0.5-0.2,0.8c-0.1,0.7-0.2,1.4-0.3,2.2c-0.1,0.7-0.2,1.4-0.3,2.2c-0.3,1.4-0.6,2.8-0.9,4.3
				c-0.3,1.4-0.6,2.9-0.9,4.2c-0.1,0.3-0.1,0.5-0.2,0.7s-0.3,0.2-0.6,0.2c-0.1,0-0.1,0-0.1,0c-0.1,0.1-0.1,0.1-0.1,0.1
				c-0.5,0.2-1.1,0.4-1.6,0.6c-0.5,0.2-1.1,0.4-1.6,0.5c0-0.2-0.1-0.3-0.1-0.5s0-0.3,0-0.4c0-0.4-0.1-0.9-0.1-1.3c0-0.4,0-0.9,0-1.3
				c0.1-1,0.1-1.9,0.2-2.9s0.2-1.9,0.3-2.7c0.1-0.9,0.2-1.8,0.3-2.7c0.1-0.9,0.2-1.7,0.3-2.6c0.1-0.5,0.2-1,0.3-1.4
				c0.1-0.5,0.3-1,0.4-1.4c0-0.2,0-0.4-0.1-0.5s-0.2-0.2-0.4-0.2c-0.1,0.1-0.1,0.2-0.2,0.3c0,0.1-0.1,0.1-0.1,0.2l0,0
				c0-0.1,0-0.2,0-0.3s0-0.2,0-0.4c-0.3-0.1-0.5-0.1-0.7-0.2s-0.5-0.1-0.7-0.1s-0.3,0-0.4,0s-0.2,0.1-0.2,0.3c0,0.1,0,0.3-0.1,0.4
				c0,0.2-0.1,0.3-0.1,0.4l0,0c0-0.2,0-0.3,0-0.5C398.4,183.2,398.4,182.9,398.5,182.7 M400.2,185.3
				C400.2,185.3,400.3,185.3,400.2,185.3c-0.3,2.3-0.7,4.8-0.9,7.2c-0.3,2.5-0.5,4.9-0.7,7.4c0-0.4,0-0.8,0-1.2s0-0.8,0-1.2
				c0.2-1.6,0.3-3.2,0.5-4.8s0.3-3.2,0.5-4.8c0.1-0.4,0.1-0.8,0.2-1.2s0.2-0.8,0.2-1.2C400.2,185.4,400.2,185.4,400.2,185.3
				 M397.8,185.3c0-0.1,0.1-0.1,0.1-0.1c-0.4,2.6-0.7,5.1-1,7.6s-0.4,5-0.5,7.4l0,0h-0.1c-0.1-0.2-0.1-0.4-0.1-0.6
				c0-0.2,0-0.5,0-0.7c0-0.9,0.1-1.8,0.1-2.7c0.1-0.9,0.2-1.8,0.2-2.7c0.1-1.2,0.3-2.3,0.4-3.5c0.2-1.1,0.3-2.3,0.5-3.4
				C397.5,186.3,397.6,185.8,397.8,185.3L397.8,185.3 M411.3,184.8c0,0.1,0,0.1,0,0.2c0,0.1,0,0.1,0,0.2c-0.1,1.9-0.3,3.7-0.6,5.6
				c-0.3,1.8-0.7,3.6-1.1,5.4c-0.3,0.9-0.5,1.9-0.6,2.8c-0.1,0.9-0.2,1.9-0.1,2.8c0,0.1,0,0.1,0,0.2c-0.2-0.5-0.2-1-0.2-1.6
				c0-0.5,0.1-1,0.2-1.5c0.2-0.8,0.3-1.7,0.5-2.5c0.1-0.8,0.3-1.6,0.5-2.5c0.3-1.4,0.5-2.9,0.7-4.3c0.2-1.4,0.4-2.9,0.5-4.3
				c0-0.1,0-0.1,0.1-0.2c0-0.1,0-0.1,0-0.2L411.3,184.8 M408.7,204.1c0-0.2,0.1-0.4,0.1-0.6c0-0.2,0-0.3,0-0.5
				c0,0.2,0.1,0.4,0.1,0.6C409.1,203.7,409,203.9,408.7,204.1 M352,193.2c0.1,0,0.3,0,0.4,0s0.2,0,0.3,0c2.2-0.2,4.2-0.7,6.1-1.5
				c1.9-0.7,3.8-1.7,5.5-3c0.3-0.2,0.6-0.5,0.9-0.8s0.5-0.6,0.8-0.9c0.4-0.5,0.6-1.1,0.6-1.7c0-0.6-0.1-1.1-0.5-1.7
				c-0.6-0.9-1.3-1.7-2.1-2.3c-0.9-0.6-1.8-1-2.9-1.2c-0.6-0.2-1.3-0.2-1.9-0.2s-1.2,0-1.9,0c-1.9,0.3-3.5,0.9-4.8,1.8
				c-1.4,1-2.5,2.3-3.3,4c-0.7,1.3-1.3,2.7-1.9,4.1c-0.7,1.4-1.3,2.8-1.8,4.2c-0.2,0.6-0.4,1.2-0.6,1.8s-0.3,1.3-0.3,1.9
				c-0.2,1.3,0,2.5,0.6,3.5s1.6,1.7,3,2.2c0.5,0.1,1,0.2,1.5,0.3s1,0.1,1.6,0.1c1.7,0.2,3.3,0.1,4.9-0.3c1.6-0.3,3.2-0.8,4.8-1.4
				c0.2-0.1,0.5-0.2,0.8-0.2s0.5-0.1,0.8-0.1c0.2,0,0.4-0.1,0.6-0.1s0.3-0.1,0.3-0.1c0.1-0.2,0.3-0.3,0.4-0.3c0.2,0.1,0.3,0.1,0.4,0
				c0.1,0,0.2,0,0.2,0c0-0.1,0.1-0.1,0.1-0.1c0.1-0.2,0.1-0.4,0-0.6c-0.1-0.2-0.3-0.4-0.7-0.5c-0.8-0.3-1.7-0.5-2.5-0.5
				c-0.9,0-1.8,0.1-2.6,0.3c-1,0.2-1.9,0.4-2.9,0.7c-0.9,0.3-1.9,0.6-2.8,0.8c-0.2,0.1-0.4,0.1-0.6,0.1s-0.3-0.1-0.5-0.3
				c-0.3-0.4-0.6-0.8-0.8-1.2c-0.2-0.4-0.3-0.9-0.4-1.4c0-0.9,0-1.7,0.1-2.6C351.4,194.9,351.7,194,352,193.2 M355.1,185.9
				c0.3-0.7,0.7-1.3,1.1-1.8c0.4-0.6,0.9-1.1,1.4-1.6c0.2-0.1,0.3-0.2,0.5-0.3s0.4-0.2,0.6-0.4c0.3,0.4,0.5,0.7,0.7,1
				c0.2,0.4,0.4,0.7,0.6,1s0.3,0.7,0.3,1c0,0.4-0.1,0.7-0.3,1c-0.1,0.2-0.3,0.5-0.4,0.7c-0.2,0.2-0.4,0.4-0.6,0.6
				c-0.8,0.8-1.7,1.4-2.7,2s-1.9,1.1-2.9,1.5c-0.1,0-0.1,0-0.1,0c-0.1,0-0.1,0-0.2,0c0-0.1,0.1-0.2,0.1-0.3s0.1-0.2,0.1-0.2
				c0.3-0.7,0.6-1.4,0.9-2.1C354.4,187.2,354.7,186.6,355.1,185.9 M350.3,196.6L350.3,196.6c0.1,0.6,0.1,1.2,0.1,1.8h-0.1
				c0-0.3,0-0.6,0-0.9C350.3,197.2,350.3,196.9,350.3,196.6 M347.5,197.5c0.1-0.5,0.2-1,0.4-1.5c0,0.5,0,1,0,1.5s0,1,0,1.5
				C347.5,198.5,347.4,198,347.5,197.5 M366,184.8c0,0.1,0,0.2,0,0.3s0,0.2,0,0.3h-0.1h-0.1c0-0.1,0-0.2,0-0.3s0-0.2,0-0.3
				C365.9,184.8,365.9,184.8,366,184.8 M363,185.3c-0.1,0-0.1,0-0.1,0c0-0.1,0-0.2,0-0.3s0-0.3,0-0.4c0.2,0.2,0.3,0.3,0.3,0.4
				S363.2,185.2,363,185.3C363.1,185.3,363,185.3,363,185.3 M350.7,175c-0.1,0-0.2,0-0.3,0c-0.1,0-0.2,0.1-0.2,0.1
				c0,0.1-0.1,0.1-0.1,0.2c0,0.2,0,0.3,0,0.5c0,0.1,0,0.3,0.1,0.4h0.1l0,0c0,0.2,0,0.3,0.1,0.4c0.1,0.2,0.1,0.3,0.2,0.4
				c0.1,0.2,0.3,0.4,0.5,0.5s0.5,0.1,0.7,0s0.5-0.1,0.7-0.1s0.4-0.1,0.6-0.1c0.8-0.1,1.7-0.2,2.5-0.3c0.9-0.1,1.7-0.3,2.5-0.4
				c1-0.1,1.8-0.2,2.6-0.3c0.8-0.1,1.7-0.2,2.5-0.2c0.8-0.1,1.7-0.1,2.7-0.2c0.4,0,0.8-0.1,1.1-0.1c0.3-0.1,0.7-0.1,1.1-0.1
				c0.1,0,0.1,0,0.2,0s0.1-0.1,0-0.2c0-0.2,0-0.3,0-0.4c0-0.1-0.1-0.3-0.2-0.4l0,0c-0.1-0.3-0.2-0.6-0.3-0.7
				c-0.2-0.1-0.4-0.1-0.7-0.1c-0.1,0-0.2,0-0.3,0c-0.1,0-0.2,0-0.3,0c-0.1-0.1-0.4-0.1-0.9,0c-0.5,0-1,0.1-1.6,0.1
				c-0.6,0.1-1.2,0.1-1.9,0.1c-0.4,0-0.9,0.1-1.5,0.1s-1.2,0-1.8,0.1c-0.6,0-1.1,0.1-1.6,0.1c-0.4,0-0.7,0-0.7,0L351,175
				C350.9,175,350.8,175,350.7,175 M352.9,176L352.9,176l-1.2,0.2v-0.1L352.9,176 M350.7,176.3C350.7,176.3,350.7,176.4,350.7,176.3
				L350.7,176.3C350.6,176.3,350.6,176.3,350.7,176.3L350.7,176.3C350.8,176.3,350.8,176.3,350.7,176.3 M352.4,177.4L352.4,177.4
				l0.2-0.1L352.4,177.4 M357.2,175.5L357.2,175.5l0.4-0.1v0.1c-0.1,0-0.1,0-0.2,0C357.4,175.5,357.3,175.5,357.2,175.5 M358,175.5
				L358,175.5C358,175.4,358,175.4,358,175.5c0.1-0.1,0.2-0.1,0.2-0.1c0.1,0,0.1,0,0.2,0l0,0L358,175.5 M359.9,175.2h0.4v0.1
				L359.9,175.2L359.9,175.2 M335.5,168.3c0.1,0.3,0.1,0.7,0.2,1c0.1,0.2,0.1,0.3,0.2,0.4c0.1,0.2,0.2,0.3,0.3,0.4
				c0.3,0.1,0.5,0.2,0.7,0.2c0.3,0,0.5,0,0.8-0.1c0-0.3,0.1-0.6,0.1-0.9c0-0.3,0-0.6,0-0.9h0.1h0.1c0,0.3,0.1,0.6,0.1,0.9
				c0,0.3,0.1,0.6,0.1,0.9c0.3,0.1,0.6,0.1,0.9,0.1s0.6-0.2,0.8-0.5c0.4,0.1,0.6,0,0.6-0.1c0.1-0.2,0.1-0.4,0.1-0.7
				c0.2-0.9,0.2-1.6-0.2-2.3c-0.4-0.7-1-1.2-1.8-1.5c-0.9-0.3-1.7-0.5-2.6-0.5s-1.8,0-2.6,0.2c-1.9,0.4-3.5,1-4.9,2s-2.6,2.3-3.5,4
				c-0.8,1.4-1.2,2.7-1,4c0.1,1.3,0.7,2.6,1.7,3.8c0.3,0.3,0.5,0.6,0.8,0.8c0.3,0.3,0.6,0.6,0.9,0.8c0.5,0.5,1,1,1.6,1.5
				s1.1,1,1.7,1.5c0.6,0.6,1.1,1.2,1.6,1.9s1,1.5,1.3,2.2c0.7,1.5,1,2.9,1.2,4.4s-0.1,3-0.8,4.5c-0.2,0.4-0.4,0.9-0.6,1.3
				c-0.2,0.4-0.4,0.9-0.6,1.3c-0.5,0.8-1,1.5-1.7,2.2s-1.4,1.3-2.2,1.8c-0.5-0.4-0.9-0.8-1.2-1.3c-0.3-0.5-0.5-1-0.7-1.5
				c-0.1-0.4-0.3-0.8-0.4-1.2s-0.3-0.9-0.4-1.3c-0.1-0.3-0.3-0.6-0.5-0.8s-0.5-0.3-0.8-0.4c-0.7-0.2-1.4-0.3-2.1-0.3
				s-1.4,0.1-2.1,0.2c-0.5,0.1-0.9,0.3-1.1,0.6c-0.3,0.3-0.4,0.8-0.4,1.3c0,0.3,0.1,0.6,0.2,0.8c0.2,0.2,0.4,0.4,0.7,0.4
				c0.4,0.1,0.6,0.2,0.8,0.4c0.2,0.2,0.4,0.4,0.5,0.7c0.5,1.1,1.2,2.1,2,2.9c0.8,0.8,1.9,1.4,3.1,1.6c1.5,0.3,3,0.3,4.4,0.1
				c1.5-0.2,2.9-0.8,4.2-1.6c1.3-0.9,2.5-1.9,3.5-3s1.9-2.5,2.6-3.9c0.8-1.8,1.1-3.5,1-5.3c-0.1-1.7-0.7-3.4-1.7-5
				c-0.4-0.7-0.9-1.4-1.4-2s-1.1-1.2-1.8-1.7c-0.7-0.6-1.3-1.1-2-1.7c-0.7-0.5-1.3-1-2-1.6c-0.5-0.4-0.9-0.8-1.3-1.3
				s-0.8-0.9-1.1-1.4c-0.4-0.6-0.6-1.2-0.7-1.8s-0.1-1.2,0-1.9c0.3-1.3,0.9-2.5,1.8-3.4c0.8-1,1.8-1.8,2.9-2.5
				C335.2,167.6,335.3,167.9,335.5,168.3 M340.3,168.8C340.2,168.8,340.2,168.8,340.3,168.8c-0.1-0.1-0.1-0.2-0.1-0.3s0-0.3,0-0.4
				c0.1,0,0.1,0,0.1,0l0,0C340.3,168.3,340.3,168.5,340.3,168.8L340.3,168.8 M341.2,191.3c0-0.3,0-0.6,0-0.9
				c0.2,0.6,0.3,1.1,0.3,1.7c0,0.6,0,1.1-0.1,1.7c-0.1-0.3-0.1-0.6-0.1-0.8c0-0.3,0-0.6,0-0.8C341.2,191.8,341.2,191.5,341.2,191.3
				 M338.2,194l-0.1-0.1c0-0.6,0-1.2,0-1.8s0-1.3,0-1.9c0.3,0.7,0.4,1.3,0.5,1.9C338.6,192.7,338.5,193.4,338.2,194L338.2,194
				 M327.2,173.4c0,0.6,0,1.2,0,1.8c-0.2-0.4-0.3-0.7-0.3-0.9C326.8,174.1,326.9,173.8,327.2,173.4 M436.2,164.5c-0.3,0-0.6,0-0.8,0
				s-0.5,0-0.7,0c-0.6,0-0.9,0.3-1.1,0.9c-0.1,0.2-0.1,0.4-0.1,0.6c0,0.2-0.1,0.4-0.1,0.6c-0.2,1-0.3,2.1-0.4,3.2
				c-0.2,1.1-0.3,2.1-0.5,3.2c-0.3,2.9-0.6,5.7-0.9,8.6c-0.3,2.8-0.6,5.7-0.9,8.5c-0.1,0.8-0.2,1.6-0.3,2.4
				c-0.2,0.8-0.3,1.5-0.5,2.4c-0.2,1-0.5,2.1-0.8,3.1s-0.6,2-0.9,3c-0.1,0.4-0.2,0.7-0.1,0.9s0.3,0.3,0.7,0.4
				c0.6,0.2,1.1,0.3,1.6,0.4c0.6,0.1,1.1,0.2,1.6,0.2c0.8,0.1,1.6,0.1,2.4,0.2c0.8,0.1,1.6,0.1,2.4,0.2c1.4,0.2,2.8,0.3,4.3,0.4
				c1.4,0.1,2.8,0.2,4.2,0.3c0.8,0.1,1.7,0.1,2.5,0.1s1.6-0.1,2.5-0.3c0.1-0.1,0.3-0.1,0.4-0.2c0.2,0,0.3-0.1,0.4-0.2
				c0.2-0.2,0.2-0.3,0.2-0.4c0-0.2-0.1-0.3-0.3-0.4c-0.2-0.1-0.5-0.2-0.7-0.3c-0.3-0.1-0.5-0.2-0.7-0.2c-0.5-0.1-1-0.2-1.5-0.2
				c-0.5-0.1-1-0.1-1.6-0.1s-1.1,0-1.7,0.1s-1.1,0.1-1.7,0.1c-1.5,0-3-0.1-4.5-0.3c-1.4-0.2-2.9-0.4-4.4-0.6
				c-0.1-0.1-0.1-0.1-0.2-0.2c0-0.1,0-0.1,0-0.2c0-0.1,0-0.1,0.1-0.2c0.6-1.5,1-3.1,1.4-4.7c0.4-1.6,0.7-3.2,0.9-4.8
				c0.2-1.6,0.4-3.2,0.6-4.8s0.4-3.3,0.5-4.9c0.2-1.8,0.4-3.6,0.5-5.5c0.2-1.8,0.3-3.6,0.5-5.5c0.1-0.8,0.1-1.5,0.2-2.2
				c0.1-0.8,0.1-1.5,0.2-2.3c0-0.1,0-0.2,0-0.3c0-0.2-0.1-0.3-0.2-0.3c-0.4-0.2-0.7-0.4-1.1-0.5s-0.8-0.2-1.2-0.1
				c-0.1,0.2-0.1,0.3-0.2,0.5s-0.1,0.4-0.2,0.5l0,0h-0.1c0-0.2,0-0.3,0.1-0.5C436,164.9,436.1,164.7,436.2,164.5 M436,166.5
				c0,0.1,0,0.2,0,0.2c-0.4,3.7-0.8,7.4-1.2,11.1c-0.4,3.7-0.8,7.4-1.2,11.1c-0.2,1.5-0.4,3.1-0.7,4.6c-0.3,1.5-0.6,3-1.1,4.5
				c0,0.2-0.1,0.3-0.1,0.5c-0.1,0.1-0.1,0.3-0.1,0.4c0,0.1-0.1,0.2-0.1,0.2c0,0.1-0.1,0.2-0.1,0.3c0.8-2.8,1.3-5.6,1.7-8.4
				c0.4-2.9,0.7-5.7,1-8.6c0.2-2.4,0.5-4.8,0.7-7.2c0.3-2.4,0.5-4.9,0.8-7.3c0-0.3,0.1-0.5,0.1-0.8c0.1-0.3,0.2-0.5,0.3-0.8
				C435.9,166.3,436,166.4,436,166.5 M434.8,195c0-0.2,0.1-0.4,0.1-0.6c0.5-3.1,1-6.2,1.3-9.3s0.7-6.2,1-9.4
				c0.1-1.4,0.3-2.8,0.4-4.2s0.3-2.9,0.4-4.3c0-0.1,0-0.2,0-0.4c0-0.1,0.1-0.3,0.1-0.4c-0.3,3.3-0.6,6.5-0.9,9.8
				c-0.2,3.2-0.5,6.5-0.9,9.8c-0.4,3.2-0.9,6.5-1.6,9.7C434.8,195.4,434.8,195.2,434.8,195 M430.8,200.9
				C430.7,200.9,430.7,200.9,430.8,200.9c0-0.1,0-0.2,0-0.2c0-0.1,0-0.2,0-0.3l0,0l0,0l0,0l0,0c0,0.1,0,0.1,0,0.2
				C430.9,200.8,430.8,200.8,430.8,200.9L430.8,200.9z"/>
		</g>
	</g>
</g>
</svg>
